<svg width="41" height="40" viewBox="0 0 41 40" fill="none" xmlns="http://www.w3.org/2000/svg">
<path d="M20.5 1.82032L20.5 3.64063C25.0234 3.64063 29.1016 5.46876 32.0703 8.42969C35.0312 11.3984 36.8594 15.4766 36.8594 20C36.8594 24.5234 35.0312 28.6016 32.0703 31.5703C29.1016 34.5313 25.0234 36.3594 20.5 36.3594C15.9766 36.3594 11.8984 34.5313 8.92968 31.5703C5.96875 28.6016 4.14062 24.5234 4.13281 20C4.13281 15.4766 5.96094 11.3984 8.92187 8.42969C11.8906 5.46875 15.9687 3.64063 20.4922 3.64063L20.4922 1.82032L20.4922 3.8595e-06C9.45312 1.7284e-06 0.499999 8.95312 0.499997 20C0.499995 31.0469 9.45312 40 20.5 40C31.5469 40 40.5 31.0469 40.5 20C40.5 8.95313 31.5469 5.99361e-06 20.5 3.86101e-06L20.5 1.82032Z" fill="#E5E5E5"/>
<path d="M21.7891 28.5547L29.0625 21.2813C29.3984 20.9453 29.5937 20.4766 29.5937 19.9922C29.5937 19.5156 29.3984 19.0469 29.0625 18.7031L21.7891 11.4297C21.0781 10.7188 19.9297 10.7188 19.2187 11.4297C18.5078 12.1406 18.5078 13.2891 19.2187 14L25.2031 19.9844L19.2187 25.9688C18.5078 26.6797 18.5078 27.8281 19.2187 28.5391C19.9219 29.2656 21.0781 29.2656 21.7891 28.5547Z" fill="#E5E5E5"/>
<path d="M13.2266 21.8203L27.7734 21.8203C28.7813 21.8203 29.5937 21.0078 29.5937 20C29.5937 18.9922 28.7813 18.1797 27.7734 18.1797L13.2266 18.1797C12.2187 18.1797 11.4062 18.9922 11.4062 20C11.4062 21.0078 12.2266 21.8203 13.2266 21.8203Z" fill="#E5E5E5"/>
</svg>
