<svg width="41" height="40" viewBox="0 0 41 40" fill="none" xmlns="http://www.w3.org/2000/svg">
<circle cx="20.5" cy="20" r="20" fill="#F4F4F4"/>
<path d="M26.75 20C26.75 21.6576 26.0915 23.2473 24.9194 24.4194C23.7473 25.5915 22.1576 26.25 20.5 26.25C18.8424 26.25 17.2527 25.5915 16.0806 24.4194C14.9085 23.2473 14.25 21.6576 14.25 20C14.25 19.6437 14.2875 19.2958 14.3521 18.9583H12.1667V27.2854C12.1667 27.8646 12.6354 28.3333 13.2146 28.3333H27.7875C28.0651 28.3328 28.3311 28.2221 28.5271 28.0257C28.7232 27.8292 28.8333 27.563 28.8333 27.2854V18.9583H26.6479C26.7125 19.2958 26.75 19.6437 26.75 20ZM20.5 24.1667C21.0473 24.1665 21.5892 24.0586 22.0948 23.849C22.6004 23.6394 23.0598 23.3323 23.4467 22.9452C23.8336 22.5581 24.1405 22.0986 24.3498 21.5929C24.5591 21.0872 24.6668 20.5452 24.6667 19.9979C24.6665 19.4506 24.5586 18.9087 24.349 18.4031C24.1394 17.8975 23.8323 17.4381 23.4452 17.0512C23.0581 16.6643 22.5986 16.3574 22.0929 16.1481C21.5872 15.9388 21.0452 15.8311 20.4979 15.8312C19.3926 15.8315 18.3326 16.2709 17.5512 17.0527C16.7698 17.8345 16.331 18.8947 16.3312 20C16.3315 21.1053 16.7709 22.1653 17.5527 22.9467C18.3345 23.7281 19.3947 24.1669 20.5 24.1667ZM25.5 15.625H27.9979C28.1639 15.625 28.3231 15.5592 28.4406 15.4421C28.5581 15.3249 28.6244 15.166 28.625 15V12.5021C28.625 12.3358 28.5589 12.1763 28.4413 12.0587C28.3237 11.9411 28.1642 11.875 27.9979 11.875H25.5C25.3337 11.875 25.1742 11.9411 25.0566 12.0587C24.939 12.1763 24.8729 12.3358 24.8729 12.5021V15C24.875 15.3437 25.1562 15.625 25.5 15.625ZM20.5 0C15.1957 0 10.1086 2.10714 6.35786 5.85786C2.60714 9.60859 0.5 14.6957 0.5 20C0.5 25.3043 2.60714 30.3914 6.35786 34.1421C10.1086 37.8929 15.1957 40 20.5 40C23.1264 40 25.7272 39.4827 28.1537 38.4776C30.5802 37.4725 32.785 35.9993 34.6421 34.1421C36.4993 32.285 37.9725 30.0802 38.9776 27.6537C39.9827 25.2272 40.5 22.6264 40.5 20C40.5 17.3736 39.9827 14.7728 38.9776 12.3463C37.9725 9.91982 36.4993 7.71504 34.6421 5.85786C32.785 4.00069 30.5802 2.5275 28.1537 1.52241C25.7272 0.517315 23.1264 0 20.5 0ZM30.9167 28.1021C30.9167 29.375 29.875 30.4167 28.6021 30.4167H12.3979C11.125 30.4167 10.0833 29.375 10.0833 28.1021V11.8979C10.0833 10.625 11.125 9.58333 12.3979 9.58333H28.6021C29.875 9.58333 30.9167 10.625 30.9167 11.8979V28.1021Z" fill="#FF9900"/>
</svg>
