<svg width="29" height="29" viewBox="0 0 29 29" fill="none" xmlns="http://www.w3.org/2000/svg">
<circle cx="14.5" cy="14.5" r="12.5784" fill="#FF9900" stroke="#E5E5E5" stroke-width="2.15686"/>
<path d="M9.96998 18.174C11.134 17.262 12.088 16.476 12.832 15.816C13.576 15.156 14.2 14.478 14.704 13.782C15.208 13.074 15.46 12.402 15.46 11.766C15.46 11.382 15.37 11.082 15.19 10.866C15.022 10.65 14.77 10.542 14.434 10.542C14.086 10.542 13.816 10.692 13.624 10.992C13.432 11.28 13.342 11.706 13.354 12.27H9.93398C9.96998 11.202 10.204 10.32 10.636 9.624C11.068 8.916 11.632 8.4 12.328 8.076C13.024 7.74 13.798 7.572 14.65 7.572C16.126 7.572 17.224 7.938 17.944 8.67C18.664 9.402 19.024 10.35 19.024 11.514C19.024 12.762 18.604 13.932 17.764 15.024C16.936 16.116 15.898 17.094 14.65 17.958H19.15V20.82H9.96998V18.174Z" fill="#FDFDFD"/>
</svg>
