<svg width="354" height="408" viewBox="0 0 354 408" fill="none" xmlns="http://www.w3.org/2000/svg">
<g clip-path="url(#clip0_936_602)">
<path d="M222.449 204L217.898 204C217.898 215.309 213.328 225.504 205.926 232.926C198.504 240.328 188.309 244.898 177 244.898C165.691 244.898 155.496 240.328 148.074 232.926C140.672 225.504 136.102 215.309 136.102 204C136.102 192.691 140.672 182.496 148.074 175.074C155.496 167.672 165.691 163.102 177 163.082C188.309 163.082 198.504 167.652 205.926 175.055C213.328 182.477 217.898 192.672 217.898 203.98L222.449 203.98L227 203.98C227 176.383 204.617 154 177 154C149.383 154 127 176.383 127 204C127 231.617 149.383 254 177 254C204.617 254 227 231.617 227 204L222.449 204Z" fill="#E5E5E5"/>
<path d="M155.613 207.223L173.797 225.406C174.637 226.246 175.809 226.734 177.02 226.734C178.211 226.734 179.383 226.246 180.242 225.406L198.426 207.223C200.203 205.445 200.203 202.574 198.426 200.797C196.648 199.02 193.777 199.02 192 200.797L177.039 215.758L162.078 200.797C160.301 199.02 157.43 199.02 155.652 200.797C153.836 202.555 153.836 205.445 155.613 207.223Z" fill="#E5E5E5"/>
<path d="M172.449 185.816L172.449 222.184C172.449 224.703 174.48 226.734 177 226.734C179.52 226.734 181.551 224.703 181.551 222.184L181.551 185.816C181.551 183.297 179.52 181.266 177 181.266C174.48 181.266 172.449 183.316 172.449 185.816Z" fill="#E5E5E5"/>
</g>
<defs>
<clipPath id="clip0_936_602">
<rect width="100" height="100" fill="white" transform="translate(227 154) rotate(90)"/>
</clipPath>
</defs>
</svg>
