<svg width="214" height="97" viewBox="0 0 214 97" fill="none" xmlns="http://www.w3.org/2000/svg">
<path d="M71.1612 5.66309H69.1895C69.0848 5.66309 69 5.74791 69 5.85254V7.83309C69 7.93772 69.0848 8.02255 69.1895 8.02255H71.1612C71.2659 8.02255 71.3507 7.93772 71.3507 7.83309V5.85254C71.3507 5.74791 71.2659 5.66309 71.1612 5.66309Z" fill="#FF9900"/>
<path d="M71.1612 8.49316H69.1895C69.0848 8.49316 69 8.57799 69 8.68262V10.6632C69 10.7678 69.0848 10.8526 69.1895 10.8526H71.1612C71.2659 10.8526 71.3507 10.7678 71.3507 10.6632V8.68262C71.3507 8.57799 71.2659 8.49316 71.1612 8.49316Z" fill="#FF9900"/>
<path d="M71.1612 11.3252H69.1895C69.0848 11.3252 69 11.41 69 11.5147V13.4952C69 13.5998 69.0848 13.6847 69.1895 13.6847H71.1612C71.2659 13.6847 71.3507 13.5998 71.3507 13.4952V11.5147C71.3507 11.41 71.2659 11.3252 71.1612 11.3252Z" fill="#FF9900"/>
<path d="M73.9933 5.66309H72.0215C71.9169 5.66309 71.832 5.74791 71.832 5.85254V7.83309C71.832 7.93772 71.9169 8.02255 72.0215 8.02255H73.9933C74.0979 8.02255 74.1827 7.93772 74.1827 7.83309V5.85254C74.1827 5.74791 74.0979 5.66309 73.9933 5.66309Z" fill="#FF9900"/>
<path d="M73.9933 8.49316H72.0215C71.9169 8.49316 71.832 8.57799 71.832 8.68262V10.6632C71.832 10.7678 71.9169 10.8526 72.0215 10.8526H73.9933C74.0979 10.8526 74.1827 10.7678 74.1827 10.6632V8.68262C74.1827 8.57799 74.0979 8.49316 73.9933 8.49316Z" fill="#FF9900"/>
<path d="M73.9933 11.3252H72.0215C71.9169 11.3252 71.832 11.41 71.832 11.5147V13.4952C71.832 13.5998 71.9169 13.6847 72.0215 13.6847H73.9933C74.0979 13.6847 74.1827 13.5998 74.1827 13.4952V11.5147C74.1827 11.41 74.0979 11.3252 73.9933 11.3252Z" fill="#FF9900"/>
<path d="M76.8272 5.66309H74.8555C74.7508 5.66309 74.666 5.74791 74.666 5.85254V7.83309C74.666 7.93772 74.7508 8.02255 74.8555 8.02255H76.8272C76.9319 8.02255 77.0167 7.93772 77.0167 7.83309V5.85254C77.0167 5.74791 76.9319 5.66309 76.8272 5.66309Z" fill="#FF9900"/>
<path d="M76.8272 8.49316H74.8555C74.7508 8.49316 74.666 8.57799 74.666 8.68262V10.6632C74.666 10.7678 74.7508 10.8526 74.8555 10.8526H76.8272C76.9319 10.8526 77.0167 10.7678 77.0167 10.6632V8.68262C77.0167 8.57799 76.9319 8.49316 76.8272 8.49316Z" fill="#FF9900"/>
<path d="M76.8272 11.3252H74.8555C74.7508 11.3252 74.666 11.41 74.666 11.5147V13.4952C74.666 13.5998 74.7508 13.6847 74.8555 13.6847H76.8272C76.9319 13.6847 77.0167 13.5998 77.0167 13.4952V11.5147C77.0167 11.41 76.9319 11.3252 76.8272 11.3252Z" fill="#FF9900"/>
<path d="M79.6583 2.83203H77.6865C77.5819 2.83203 77.4971 2.91685 77.4971 3.02149V5.00204C77.4971 5.10667 77.5819 5.19149 77.6865 5.19149H79.6583C79.7629 5.19149 79.8478 5.10667 79.8478 5.00203V3.02149C79.8478 2.91685 79.7629 2.83203 79.6583 2.83203Z" fill="#FF9900"/>
<path d="M79.6583 5.66309H77.6865C77.5819 5.66309 77.4971 5.74791 77.4971 5.85254V7.83309C77.4971 7.93772 77.5819 8.02255 77.6865 8.02255H79.6583C79.7629 8.02255 79.8478 7.93772 79.8478 7.83309V5.85254C79.8478 5.74791 79.7629 5.66309 79.6583 5.66309Z" fill="#FF9900"/>
<path d="M79.6583 8.49316H77.6865C77.5819 8.49316 77.4971 8.57799 77.4971 8.68262V10.6632C77.4971 10.7678 77.5819 10.8526 77.6865 10.8526H79.6583C79.7629 10.8526 79.8478 10.7678 79.8478 10.6632V8.68262C79.8478 8.57799 79.7629 8.49316 79.6583 8.49316Z" fill="#FF9900"/>
<path d="M79.6583 11.3252H77.6865C77.5819 11.3252 77.4971 11.41 77.4971 11.5147V13.4952C77.4971 13.5998 77.5819 13.6847 77.6865 13.6847H79.6583C79.7629 13.6847 79.8478 13.5998 79.8478 13.4952V11.5147C79.8478 11.41 79.7629 11.3252 79.6583 11.3252Z" fill="#FF9900"/>
<path d="M79.6583 14.1562H77.6865C77.5819 14.1562 77.4971 14.2411 77.4971 14.3457V16.3263C77.4971 16.4309 77.5819 16.5157 77.6865 16.5157H79.6583C79.7629 16.5157 79.8478 16.4309 79.8478 16.3263V14.3457C79.8478 14.2411 79.7629 14.1562 79.6583 14.1562Z" fill="#FF9900"/>
<path d="M79.6583 16.9883H77.6865C77.5819 16.9883 77.4971 17.0731 77.4971 17.1777V19.1583C77.4971 19.2629 77.5819 19.3477 77.6865 19.3477H79.6583C79.7629 19.3477 79.8478 19.2629 79.8478 19.1583V17.1777C79.8478 17.0731 79.7629 16.9883 79.6583 16.9883Z" fill="#FF9900"/>
<path d="M82.4923 0H80.5205C80.4159 0 80.3311 0.0848236 80.3311 0.189458V2.17C80.3311 2.27464 80.4159 2.35946 80.5205 2.35946H82.4923C82.5969 2.35946 82.6817 2.27464 82.6817 2.17V0.189458C82.6817 0.0848232 82.5969 0 82.4923 0Z" fill="#FF9900"/>
<path d="M82.4913 2.83203H80.5195C80.4149 2.83203 80.3301 2.91685 80.3301 3.02149V5.00204C80.3301 5.10667 80.4149 5.19149 80.5195 5.19149H82.4913C82.5959 5.19149 82.6808 5.10667 82.6808 5.00203V3.02149C82.6808 2.91685 82.5959 2.83203 82.4913 2.83203Z" fill="#FF9900"/>
<path d="M82.4913 5.66309H80.5195C80.4149 5.66309 80.3301 5.74791 80.3301 5.85254V7.83309C80.3301 7.93772 80.4149 8.02255 80.5195 8.02255H82.4913C82.5959 8.02255 82.6808 7.93772 82.6808 7.83309V5.85254C82.6808 5.74791 82.5959 5.66309 82.4913 5.66309Z" fill="#FF9900"/>
<path d="M82.4913 8.49316H80.5195C80.4149 8.49316 80.3301 8.57799 80.3301 8.68262V10.6632C80.3301 10.7678 80.4149 10.8526 80.5195 10.8526H82.4913C82.5959 10.8526 82.6808 10.7678 82.6808 10.6632V8.68262C82.6808 8.57799 82.5959 8.49316 82.4913 8.49316Z" fill="#FF9900"/>
<path d="M82.4913 11.3252H80.5195C80.4149 11.3252 80.3301 11.41 80.3301 11.5147V13.4952C80.3301 13.5998 80.4149 13.6847 80.5195 13.6847H82.4913C82.5959 13.6847 82.6808 13.5998 82.6808 13.4952V11.5147C82.6808 11.41 82.5959 11.3252 82.4913 11.3252Z" fill="#FF9900"/>
<path d="M82.4913 14.1562H80.5195C80.4149 14.1562 80.3301 14.2411 80.3301 14.3457V16.3263C80.3301 16.4309 80.4149 16.5157 80.5195 16.5157H82.4913C82.5959 16.5157 82.6808 16.4309 82.6808 16.3263V14.3457C82.6808 14.2411 82.5959 14.1562 82.4913 14.1562Z" fill="#FF9900"/>
<path d="M82.4913 16.9883H80.5195C80.4149 16.9883 80.3301 17.0731 80.3301 17.1777V19.1583C80.3301 19.2629 80.4149 19.3477 80.5195 19.3477H82.4913C82.5959 19.3477 82.6808 19.2629 82.6808 19.1583V17.1777C82.6808 17.0731 82.5959 16.9883 82.4913 16.9883Z" fill="#FF9900"/>
<path d="M82.4913 19.8184H80.5195C80.4149 19.8184 80.3301 19.9032 80.3301 20.0078V21.9884C80.3301 22.093 80.4149 22.1778 80.5195 22.1778H82.4913C82.5959 22.1778 82.6808 22.093 82.6808 21.9884V20.0078C82.6808 19.9032 82.5959 19.8184 82.4913 19.8184Z" fill="#FF9900"/>
<path d="M85.3233 0H83.3516C83.2469 0 83.1621 0.0848236 83.1621 0.189458V2.17C83.1621 2.27464 83.2469 2.35946 83.3516 2.35946H85.3233C85.428 2.35946 85.5128 2.27464 85.5128 2.17V0.189458C85.5128 0.0848232 85.428 0 85.3233 0Z" fill="#FF9900"/>
<path d="M85.3233 2.83203H83.3516C83.2469 2.83203 83.1621 2.91685 83.1621 3.02149V5.00204C83.1621 5.10667 83.2469 5.19149 83.3516 5.19149H85.3233C85.428 5.19149 85.5128 5.10667 85.5128 5.00203V3.02149C85.5128 2.91685 85.428 2.83203 85.3233 2.83203Z" fill="#FF9900"/>
<path d="M85.3233 5.66309H83.3516C83.2469 5.66309 83.1621 5.74791 83.1621 5.85254V7.83309C83.1621 7.93772 83.2469 8.02255 83.3516 8.02255H85.3233C85.428 8.02255 85.5128 7.93772 85.5128 7.83309V5.85254C85.5128 5.74791 85.428 5.66309 85.3233 5.66309Z" fill="#FF9900"/>
<path d="M85.3233 8.49316H83.3516C83.2469 8.49316 83.1621 8.57799 83.1621 8.68262V10.6632C83.1621 10.7678 83.2469 10.8526 83.3516 10.8526H85.3233C85.428 10.8526 85.5128 10.7678 85.5128 10.6632V8.68262C85.5128 8.57799 85.428 8.49316 85.3233 8.49316Z" fill="#FF9900"/>
<path d="M85.3233 11.3252H83.3516C83.2469 11.3252 83.1621 11.41 83.1621 11.5147V13.4952C83.1621 13.5998 83.2469 13.6847 83.3516 13.6847H85.3233C85.428 13.6847 85.5128 13.5998 85.5128 13.4952V11.5147C85.5128 11.41 85.428 11.3252 85.3233 11.3252Z" fill="#FF9900"/>
<path d="M85.3233 14.1562H83.3516C83.2469 14.1562 83.1621 14.2411 83.1621 14.3457V16.3263C83.1621 16.4309 83.2469 16.5157 83.3516 16.5157H85.3233C85.428 16.5157 85.5128 16.4309 85.5128 16.3263V14.3457C85.5128 14.2411 85.428 14.1562 85.3233 14.1562Z" fill="#FF9900"/>
<path d="M85.3233 16.9883H83.3516C83.2469 16.9883 83.1621 17.0731 83.1621 17.1777V19.1583C83.1621 19.2629 83.2469 19.3477 83.3516 19.3477H85.3233C85.428 19.3477 85.5128 19.2629 85.5128 19.1583V17.1777C85.5128 17.0731 85.428 16.9883 85.3233 16.9883Z" fill="#FF9900"/>
<path d="M85.3233 19.8184H83.3516C83.2469 19.8184 83.1621 19.9032 83.1621 20.0078V21.9884C83.1621 22.093 83.2469 22.1778 83.3516 22.1778H85.3233C85.428 22.1778 85.5128 22.093 85.5128 21.9884V20.0078C85.5128 19.9032 85.428 19.8184 85.3233 19.8184Z" fill="#FF9900"/>
<path d="M85.3233 22.6514H83.3516C83.2469 22.6514 83.1621 22.7362 83.1621 22.8408V24.8214C83.1621 24.926 83.2469 25.0108 83.3516 25.0108H85.3233C85.428 25.0108 85.5128 24.926 85.5128 24.8214V22.8408C85.5128 22.7362 85.428 22.6514 85.3233 22.6514Z" fill="#FF9900"/>
<path d="M88.1563 0H86.1846C86.0799 0 85.9951 0.0848236 85.9951 0.189458V2.17C85.9951 2.27464 86.0799 2.35946 86.1846 2.35946H88.1563C88.261 2.35946 88.3458 2.27464 88.3458 2.17V0.189458C88.3458 0.0848232 88.261 0 88.1563 0Z" fill="#FF9900"/>
<path d="M88.1573 2.83203H86.1856C86.0809 2.83203 85.9961 2.91685 85.9961 3.02149V5.00204C85.9961 5.10667 86.0809 5.19149 86.1856 5.19149H88.1573C88.262 5.19149 88.3468 5.10667 88.3468 5.00203V3.02149C88.3468 2.91685 88.262 2.83203 88.1573 2.83203Z" fill="#FF9900"/>
<path d="M88.1573 5.66309H86.1856C86.0809 5.66309 85.9961 5.74791 85.9961 5.85254V7.83309C85.9961 7.93772 86.0809 8.02255 86.1856 8.02255H88.1573C88.262 8.02255 88.3468 7.93772 88.3468 7.83309V5.85254C88.3468 5.74791 88.262 5.66309 88.1573 5.66309Z" fill="#FF9900"/>
<path d="M88.1573 8.49316H86.1856C86.0809 8.49316 85.9961 8.57799 85.9961 8.68262V10.6632C85.9961 10.7678 86.0809 10.8526 86.1856 10.8526H88.1573C88.262 10.8526 88.3468 10.7678 88.3468 10.6632V8.68262C88.3468 8.57799 88.262 8.49316 88.1573 8.49316Z" fill="#FF9900"/>
<path d="M88.1573 11.3252H86.1856C86.0809 11.3252 85.9961 11.41 85.9961 11.5147V13.4952C85.9961 13.5998 86.0809 13.6847 86.1856 13.6847H88.1573C88.262 13.6847 88.3468 13.5998 88.3468 13.4952V11.5147C88.3468 11.41 88.262 11.3252 88.1573 11.3252Z" fill="#FF9900"/>
<path d="M88.1573 14.1562H86.1856C86.0809 14.1562 85.9961 14.2411 85.9961 14.3457V16.3263C85.9961 16.4309 86.0809 16.5157 86.1856 16.5157H88.1573C88.262 16.5157 88.3468 16.4309 88.3468 16.3263V14.3457C88.3468 14.2411 88.262 14.1562 88.1573 14.1562Z" fill="#FF9900"/>
<path d="M88.1573 16.9883H86.1856C86.0809 16.9883 85.9961 17.0731 85.9961 17.1777V19.1583C85.9961 19.2629 86.0809 19.3477 86.1856 19.3477H88.1573C88.262 19.3477 88.3468 19.2629 88.3468 19.1583V17.1777C88.3468 17.0731 88.262 16.9883 88.1573 16.9883Z" fill="#FF9900"/>
<path d="M88.1573 19.8184H86.1856C86.0809 19.8184 85.9961 19.9032 85.9961 20.0078V21.9884C85.9961 22.093 86.0809 22.1778 86.1856 22.1778H88.1573C88.262 22.1778 88.3468 22.093 88.3468 21.9884V20.0078C88.3468 19.9032 88.262 19.8184 88.1573 19.8184Z" fill="#FF9900"/>
<path d="M88.1573 22.6514H86.1856C86.0809 22.6514 85.9961 22.7362 85.9961 22.8408V24.8214C85.9961 24.926 86.0809 25.0108 86.1856 25.0108H88.1573C88.262 25.0108 88.3468 24.926 88.3468 24.8214V22.8408C88.3468 22.7362 88.262 22.6514 88.1573 22.6514Z" fill="#FF9900"/>
<path d="M88.1573 28.3125H86.1856C86.0809 28.3125 85.9961 28.3973 85.9961 28.502V30.4825C85.9961 30.5871 86.0809 30.672 86.1856 30.672H88.1573C88.262 30.672 88.3468 30.5871 88.3468 30.4825V28.502C88.3468 28.3973 88.262 28.3125 88.1573 28.3125Z" fill="#FF9900"/>
<path d="M90.9893 0H89.0176C88.9129 0 88.8281 0.0848236 88.8281 0.189458V2.17C88.8281 2.27464 88.9129 2.35946 89.0176 2.35946H90.9893C91.094 2.35946 91.1788 2.27464 91.1788 2.17V0.189458C91.1788 0.0848232 91.094 0 90.9893 0Z" fill="#FF9900"/>
<path d="M90.9893 5.66309H89.0176C88.9129 5.66309 88.8281 5.74791 88.8281 5.85254V7.83309C88.8281 7.93772 88.9129 8.02255 89.0176 8.02255H90.9893C91.094 8.02255 91.1788 7.93772 91.1788 7.83309V5.85254C91.1788 5.74791 91.094 5.66309 90.9893 5.66309Z" fill="#FF9900"/>
<path d="M90.9893 8.49316H89.0176C88.9129 8.49316 88.8281 8.57799 88.8281 8.68262V10.6632C88.8281 10.7678 88.9129 10.8526 89.0176 10.8526H90.9893C91.094 10.8526 91.1788 10.7678 91.1788 10.6632V8.68262C91.1788 8.57799 91.094 8.49316 90.9893 8.49316Z" fill="#FF9900"/>
<path d="M90.9893 11.3252H89.0176C88.9129 11.3252 88.8281 11.41 88.8281 11.5147V13.4952C88.8281 13.5998 88.9129 13.6847 89.0176 13.6847H90.9893C91.094 13.6847 91.1788 13.5998 91.1788 13.4952V11.5147C91.1788 11.41 91.094 11.3252 90.9893 11.3252Z" fill="#FF9900"/>
<path d="M90.9893 14.1562H89.0176C88.9129 14.1562 88.8281 14.2411 88.8281 14.3457V16.3263C88.8281 16.4309 88.9129 16.5157 89.0176 16.5157H90.9893C91.094 16.5157 91.1788 16.4309 91.1788 16.3263V14.3457C91.1788 14.2411 91.094 14.1562 90.9893 14.1562Z" fill="#FF9900"/>
<path d="M90.9893 16.9883H89.0176C88.9129 16.9883 88.8281 17.0731 88.8281 17.1777V19.1583C88.8281 19.2629 88.9129 19.3477 89.0176 19.3477H90.9893C91.094 19.3477 91.1788 19.2629 91.1788 19.1583V17.1777C91.1788 17.0731 91.094 16.9883 90.9893 16.9883Z" fill="#FF9900"/>
<path d="M90.9893 22.6514H89.0176C88.9129 22.6514 88.8281 22.7362 88.8281 22.8408V24.8214C88.8281 24.926 88.9129 25.0108 89.0176 25.0108H90.9893C91.094 25.0108 91.1788 24.926 91.1788 24.8214V22.8408C91.1788 22.7362 91.094 22.6514 90.9893 22.6514Z" fill="#FF9900"/>
<path d="M90.9893 25.4814H89.0176C88.9129 25.4814 88.8281 25.5663 88.8281 25.6709V27.6514C88.8281 27.7561 88.9129 27.8409 89.0176 27.8409H90.9893C91.094 27.8409 91.1788 27.7561 91.1788 27.6514V25.6709C91.1788 25.5663 91.094 25.4814 90.9893 25.4814Z" fill="#FF9900"/>
<path d="M90.9893 28.3125H89.0176C88.9129 28.3125 88.8281 28.3973 88.8281 28.502V30.4825C88.8281 30.5871 88.9129 30.672 89.0176 30.672H90.9893C91.094 30.672 91.1788 30.5871 91.1788 30.4825V28.502C91.1788 28.3973 91.094 28.3125 90.9893 28.3125Z" fill="#FF9900"/>
<path d="M90.9893 31.1436H89.0176C88.9129 31.1436 88.8281 31.2284 88.8281 31.333V33.3136C88.8281 33.4182 88.9129 33.503 89.0176 33.503H90.9893C91.094 33.503 91.1788 33.4182 91.1788 33.3136V31.333C91.1788 31.2284 91.094 31.1436 90.9893 31.1436Z" fill="#FF9900"/>
<path d="M90.9893 33.9756H89.0176C88.9129 33.9756 88.8281 34.0604 88.8281 34.165V36.1456C88.8281 36.2502 88.9129 36.335 89.0176 36.335H90.9893C91.094 36.335 91.1788 36.2502 91.1788 36.1456V34.165C91.1788 34.0604 91.094 33.9756 90.9893 33.9756Z" fill="#FF9900"/>
<path d="M90.9893 36.8076H89.0176C88.9129 36.8076 88.8281 36.8924 88.8281 36.9971V38.9776C88.8281 39.0823 88.9129 39.1671 89.0176 39.1671H90.9893C91.094 39.1671 91.1788 39.0823 91.1788 38.9776V36.9971C91.1788 36.8924 91.094 36.8076 90.9893 36.8076Z" fill="#FF9900"/>
<path d="M90.9893 39.6406H89.0176C88.9129 39.6406 88.8281 39.7254 88.8281 39.8301V41.8106C88.8281 41.9153 88.9129 42.0001 89.0176 42.0001H90.9893C91.094 42.0001 91.1788 41.9153 91.1788 41.8106V39.8301C91.1788 39.7254 91.094 39.6406 90.9893 39.6406Z" fill="#FF9900"/>
<path d="M93.8224 0H91.8506C91.746 0 91.6611 0.0848236 91.6611 0.189458V2.17C91.6611 2.27464 91.746 2.35946 91.8506 2.35946H93.8224C93.927 2.35946 94.0118 2.27464 94.0118 2.17V0.189458C94.0118 0.0848232 93.927 0 93.8224 0Z" fill="#FF9900"/>
<path d="M93.8224 2.83203H91.8506C91.746 2.83203 91.6611 2.91685 91.6611 3.02149V5.00204C91.6611 5.10667 91.746 5.19149 91.8506 5.19149H93.8224C93.927 5.19149 94.0118 5.10667 94.0118 5.00203V3.02149C94.0118 2.91685 93.927 2.83203 93.8224 2.83203Z" fill="#FF9900"/>
<path d="M93.8224 14.1562H91.8506C91.746 14.1562 91.6611 14.2411 91.6611 14.3457V16.3263C91.6611 16.4309 91.746 16.5157 91.8506 16.5157H93.8224C93.927 16.5157 94.0118 16.4309 94.0118 16.3263V14.3457C94.0118 14.2411 93.927 14.1562 93.8224 14.1562Z" fill="#FF9900"/>
<path d="M93.8224 25.4814H91.8506C91.746 25.4814 91.6611 25.5663 91.6611 25.6709V27.6514C91.6611 27.7561 91.746 27.8409 91.8506 27.8409H93.8224C93.927 27.8409 94.0118 27.7561 94.0118 27.6514V25.6709C94.0118 25.5663 93.927 25.4814 93.8224 25.4814Z" fill="#FF9900"/>
<path d="M93.8224 28.3125H91.8506C91.746 28.3125 91.6611 28.3973 91.6611 28.502V30.4825C91.6611 30.5871 91.746 30.672 91.8506 30.672H93.8224C93.927 30.672 94.0118 30.5871 94.0118 30.4825V28.502C94.0118 28.3973 93.927 28.3125 93.8224 28.3125Z" fill="#FF9900"/>
<path d="M93.8224 31.1436H91.8506C91.746 31.1436 91.6611 31.2284 91.6611 31.333V33.3136C91.6611 33.4182 91.746 33.503 91.8506 33.503H93.8224C93.927 33.503 94.0118 33.4182 94.0118 33.3136V31.333C94.0118 31.2284 93.927 31.1436 93.8224 31.1436Z" fill="#FF9900"/>
<path d="M93.8224 33.9756H91.8506C91.746 33.9756 91.6611 34.0604 91.6611 34.165V36.1456C91.6611 36.2502 91.746 36.335 91.8506 36.335H93.8224C93.927 36.335 94.0118 36.2502 94.0118 36.1456V34.165C94.0118 34.0604 93.927 33.9756 93.8224 33.9756Z" fill="#FF9900"/>
<path d="M96.6544 0H94.6826C94.578 0 94.4932 0.0848236 94.4932 0.189458V2.17C94.4932 2.27464 94.578 2.35946 94.6826 2.35946H96.6544C96.759 2.35946 96.8438 2.27464 96.8438 2.17V0.189458C96.8438 0.0848232 96.759 0 96.6544 0Z" fill="#FF9900"/>
<path d="M96.6544 2.83203H94.6826C94.578 2.83203 94.4932 2.91685 94.4932 3.02149V5.00204C94.4932 5.10667 94.578 5.19149 94.6826 5.19149H96.6544C96.759 5.19149 96.8438 5.10667 96.8438 5.00203V3.02149C96.8438 2.91685 96.759 2.83203 96.6544 2.83203Z" fill="#FF9900"/>
<path d="M96.6544 5.66309H94.6826C94.578 5.66309 94.4932 5.74791 94.4932 5.85254V7.83309C94.4932 7.93772 94.578 8.02255 94.6826 8.02255H96.6544C96.759 8.02255 96.8438 7.93772 96.8438 7.83309V5.85254C96.8438 5.74791 96.759 5.66309 96.6544 5.66309Z" fill="#FF9900"/>
<path d="M96.6544 8.49316H94.6826C94.578 8.49316 94.4932 8.57799 94.4932 8.68262V10.6632C94.4932 10.7678 94.578 10.8526 94.6826 10.8526H96.6544C96.759 10.8526 96.8438 10.7678 96.8438 10.6632V8.68262C96.8438 8.57799 96.759 8.49316 96.6544 8.49316Z" fill="#FF9900"/>
<path d="M96.6544 28.3125H94.6826C94.578 28.3125 94.4932 28.3973 94.4932 28.502V30.4825C94.4932 30.5871 94.578 30.672 94.6826 30.672H96.6544C96.759 30.672 96.8438 30.5871 96.8438 30.4825V28.502C96.8438 28.3973 96.759 28.3125 96.6544 28.3125Z" fill="#FF9900"/>
<path d="M96.6544 31.1436H94.6826C94.578 31.1436 94.4932 31.2284 94.4932 31.333V33.3136C94.4932 33.4182 94.578 33.503 94.6826 33.503H96.6544C96.759 33.503 96.8438 33.4182 96.8438 33.3136V31.333C96.8438 31.2284 96.759 31.1436 96.6544 31.1436Z" fill="#FF9900"/>
<path d="M99.4874 0H97.5156C97.411 0 97.3262 0.0848236 97.3262 0.189458V2.17C97.3262 2.27464 97.411 2.35946 97.5156 2.35946H99.4874C99.592 2.35946 99.6769 2.27464 99.6769 2.17V0.189458C99.6769 0.0848232 99.592 0 99.4874 0Z" fill="#FF9900"/>
<path d="M99.4874 2.83203H97.5156C97.411 2.83203 97.3262 2.91685 97.3262 3.02149V5.00204C97.3262 5.10667 97.411 5.19149 97.5156 5.19149H99.4874C99.592 5.19149 99.6769 5.10667 99.6769 5.00203V3.02149C99.6769 2.91685 99.592 2.83203 99.4874 2.83203Z" fill="#FF9900"/>
<path d="M99.4874 5.66309H97.5156C97.411 5.66309 97.3262 5.74791 97.3262 5.85254V7.83309C97.3262 7.93772 97.411 8.02255 97.5156 8.02255H99.4874C99.592 8.02255 99.6769 7.93772 99.6769 7.83309V5.85254C99.6769 5.74791 99.592 5.66309 99.4874 5.66309Z" fill="#FF9900"/>
<path d="M102.319 0H100.348C100.243 0 100.158 0.0848236 100.158 0.189458V2.17C100.158 2.27464 100.243 2.35946 100.348 2.35946H102.319C102.424 2.35946 102.509 2.27464 102.509 2.17V0.189458C102.509 0.0848232 102.424 0 102.319 0Z" fill="#FF9900"/>
<path d="M102.319 8.49316H100.348C100.243 8.49316 100.158 8.57799 100.158 8.68262V10.6632C100.158 10.7678 100.243 10.8526 100.348 10.8526H102.319C102.424 10.8526 102.509 10.7678 102.509 10.6632V8.68262C102.509 8.57799 102.424 8.49316 102.319 8.49316Z" fill="#FF9900"/>
<path d="M102.319 19.8184H100.348C100.243 19.8184 100.158 19.9032 100.158 20.0078V21.9884C100.158 22.093 100.243 22.1778 100.348 22.1778H102.319C102.424 22.1778 102.509 22.093 102.509 21.9884V20.0078C102.509 19.9032 102.424 19.8184 102.319 19.8184Z" fill="#FF9900"/>
<path d="M102.319 22.6514H100.348C100.243 22.6514 100.158 22.7362 100.158 22.8408V24.8214C100.158 24.926 100.243 25.0108 100.348 25.0108H102.319C102.424 25.0108 102.509 24.926 102.509 24.8214V22.8408C102.509 22.7362 102.424 22.6514 102.319 22.6514Z" fill="#FF9900"/>
<path d="M105.151 11.3252H103.18C103.075 11.3252 102.99 11.41 102.99 11.5147V13.4952C102.99 13.5998 103.075 13.6847 103.18 13.6847H105.151C105.256 13.6847 105.341 13.5998 105.341 13.4952V11.5147C105.341 11.41 105.256 11.3252 105.151 11.3252Z" fill="#FF9900"/>
<path d="M105.151 14.1562H103.18C103.075 14.1562 102.99 14.2411 102.99 14.3457V16.3263C102.99 16.4309 103.075 16.5157 103.18 16.5157H105.151C105.256 16.5157 105.341 16.4309 105.341 16.3263V14.3457C105.341 14.2411 105.256 14.1562 105.151 14.1562Z" fill="#FF9900"/>
<path d="M105.151 16.9883H103.18C103.075 16.9883 102.99 17.0731 102.99 17.1777V19.1583C102.99 19.2629 103.075 19.3477 103.18 19.3477H105.151C105.256 19.3477 105.341 19.2629 105.341 19.1583V17.1777C105.341 17.0731 105.256 16.9883 105.151 16.9883Z" fill="#FF9900"/>
<path d="M105.151 19.8184H103.18C103.075 19.8184 102.99 19.9032 102.99 20.0078V21.9884C102.99 22.093 103.075 22.1778 103.18 22.1778H105.151C105.256 22.1778 105.341 22.093 105.341 21.9884V20.0078C105.341 19.9032 105.256 19.8184 105.151 19.8184Z" fill="#FF9900"/>
<path d="M105.151 22.6514H103.18C103.075 22.6514 102.99 22.7362 102.99 22.8408V24.8214C102.99 24.926 103.075 25.0108 103.18 25.0108H105.151C105.256 25.0108 105.341 24.926 105.341 24.8214V22.8408C105.341 22.7362 105.256 22.6514 105.151 22.6514Z" fill="#FF9900"/>
<path d="M105.151 25.4814H103.18C103.075 25.4814 102.99 25.5663 102.99 25.6709V27.6514C102.99 27.7561 103.075 27.8409 103.18 27.8409H105.151C105.256 27.8409 105.341 27.7561 105.341 27.6514V25.6709C105.341 25.5663 105.256 25.4814 105.151 25.4814Z" fill="#FF9900"/>
<path d="M107.987 8.49316H106.016C105.911 8.49316 105.826 8.57799 105.826 8.68262V10.6632C105.826 10.7678 105.911 10.8526 106.016 10.8526H107.987C108.092 10.8526 108.177 10.7678 108.177 10.6632V8.68262C108.177 8.57799 108.092 8.49316 107.987 8.49316Z" fill="#FF9900"/>
<path d="M107.987 11.3252H106.016C105.911 11.3252 105.826 11.41 105.826 11.5147V13.4952C105.826 13.5998 105.911 13.6847 106.016 13.6847H107.987C108.092 13.6847 108.177 13.5998 108.177 13.4952V11.5147C108.177 11.41 108.092 11.3252 107.987 11.3252Z" fill="#FF9900"/>
<path d="M107.987 14.1562H106.016C105.911 14.1562 105.826 14.2411 105.826 14.3457V16.3263C105.826 16.4309 105.911 16.5157 106.016 16.5157H107.987C108.092 16.5157 108.177 16.4309 108.177 16.3263V14.3457C108.177 14.2411 108.092 14.1562 107.987 14.1562Z" fill="#FF9900"/>
<path d="M107.987 19.8184H106.016C105.911 19.8184 105.826 19.9032 105.826 20.0078V21.9884C105.826 22.093 105.911 22.1778 106.016 22.1778H107.987C108.092 22.1778 108.177 22.093 108.177 21.9884V20.0078C108.177 19.9032 108.092 19.8184 107.987 19.8184Z" fill="#FF9900"/>
<path d="M107.987 22.6514H106.016C105.911 22.6514 105.826 22.7362 105.826 22.8408V24.8214C105.826 24.926 105.911 25.0108 106.016 25.0108H107.987C108.092 25.0108 108.177 24.926 108.177 24.8214V22.8408C108.177 22.7362 108.092 22.6514 107.987 22.6514Z" fill="#FF9900"/>
<path d="M107.987 25.4814H106.016C105.911 25.4814 105.826 25.5663 105.826 25.6709V27.6514C105.826 27.7561 105.911 27.8409 106.016 27.8409H107.987C108.092 27.8409 108.177 27.7561 108.177 27.6514V25.6709C108.177 25.5663 108.092 25.4814 107.987 25.4814Z" fill="#FF9900"/>
<path d="M107.987 28.3125H106.016C105.911 28.3125 105.826 28.3973 105.826 28.502V30.4825C105.826 30.5871 105.911 30.672 106.016 30.672H107.987C108.092 30.672 108.177 30.5871 108.177 30.4825V28.502C108.177 28.3973 108.092 28.3125 107.987 28.3125Z" fill="#FF9900"/>
<path d="M107.987 31.1436H106.016C105.911 31.1436 105.826 31.2284 105.826 31.333V33.3136C105.826 33.4182 105.911 33.503 106.016 33.503H107.987C108.092 33.503 108.177 33.4182 108.177 33.3136V31.333C108.177 31.2284 108.092 31.1436 107.987 31.1436Z" fill="#FF9900"/>
<path d="M110.819 0H108.848C108.743 0 108.658 0.0848236 108.658 0.189458V2.17C108.658 2.27464 108.743 2.35946 108.848 2.35946H110.819C110.924 2.35946 111.009 2.27464 111.009 2.17V0.189458C111.009 0.0848232 110.924 0 110.819 0Z" fill="#FF9900"/>
<path d="M110.819 5.66309H108.848C108.743 5.66309 108.658 5.74791 108.658 5.85254V7.83309C108.658 7.93772 108.743 8.02255 108.848 8.02255H110.819C110.924 8.02255 111.009 7.93772 111.009 7.83309V5.85254C111.009 5.74791 110.924 5.66309 110.819 5.66309Z" fill="#FF9900"/>
<path d="M110.819 8.49316H108.848C108.743 8.49316 108.658 8.57799 108.658 8.68262V10.6632C108.658 10.7678 108.743 10.8526 108.848 10.8526H110.819C110.924 10.8526 111.009 10.7678 111.009 10.6632V8.68262C111.009 8.57799 110.924 8.49316 110.819 8.49316Z" fill="#FF9900"/>
<path d="M110.819 11.3252H108.848C108.743 11.3252 108.658 11.41 108.658 11.5147V13.4952C108.658 13.5998 108.743 13.6847 108.848 13.6847H110.819C110.924 13.6847 111.009 13.5998 111.009 13.4952V11.5147C111.009 11.41 110.924 11.3252 110.819 11.3252Z" fill="#FF9900"/>
<path d="M110.819 14.1562H108.848C108.743 14.1562 108.658 14.2411 108.658 14.3457V16.3263C108.658 16.4309 108.743 16.5157 108.848 16.5157H110.819C110.924 16.5157 111.009 16.4309 111.009 16.3263V14.3457C111.009 14.2411 110.924 14.1562 110.819 14.1562Z" fill="#FF9900"/>
<path d="M110.819 16.9883H108.848C108.743 16.9883 108.658 17.0731 108.658 17.1777V19.1583C108.658 19.2629 108.743 19.3477 108.848 19.3477H110.819C110.924 19.3477 111.009 19.2629 111.009 19.1583V17.1777C111.009 17.0731 110.924 16.9883 110.819 16.9883Z" fill="#FF9900"/>
<path d="M110.819 19.8184H108.848C108.743 19.8184 108.658 19.9032 108.658 20.0078V21.9884C108.658 22.093 108.743 22.1778 108.848 22.1778H110.819C110.924 22.1778 111.009 22.093 111.009 21.9884V20.0078C111.009 19.9032 110.924 19.8184 110.819 19.8184Z" fill="#FF9900"/>
<path d="M110.819 22.6514H108.848C108.743 22.6514 108.658 22.7362 108.658 22.8408V24.8214C108.658 24.926 108.743 25.0108 108.848 25.0108H110.819C110.924 25.0108 111.009 24.926 111.009 24.8214V22.8408C111.009 22.7362 110.924 22.6514 110.819 22.6514Z" fill="#FF9900"/>
<path d="M110.819 25.4814H108.848C108.743 25.4814 108.658 25.5663 108.658 25.6709V27.6514C108.658 27.7561 108.743 27.8409 108.848 27.8409H110.819C110.924 27.8409 111.009 27.7561 111.009 27.6514V25.6709C111.009 25.5663 110.924 25.4814 110.819 25.4814Z" fill="#FF9900"/>
<path d="M110.819 28.3125H108.848C108.743 28.3125 108.658 28.3973 108.658 28.502V30.4825C108.658 30.5871 108.743 30.672 108.848 30.672H110.819C110.924 30.672 111.009 30.5871 111.009 30.4825V28.502C111.009 28.3973 110.924 28.3125 110.819 28.3125Z" fill="#FF9900"/>
<path d="M110.819 31.1436H108.848C108.743 31.1436 108.658 31.2284 108.658 31.333V33.3136C108.658 33.4182 108.743 33.503 108.848 33.503H110.819C110.924 33.503 111.009 33.4182 111.009 33.3136V31.333C111.009 31.2284 110.924 31.1436 110.819 31.1436Z" fill="#FF9900"/>
<path d="M110.819 33.9756H108.848C108.743 33.9756 108.658 34.0604 108.658 34.165V36.1456C108.658 36.2502 108.743 36.335 108.848 36.335H110.819C110.924 36.335 111.009 36.2502 111.009 36.1456V34.165C111.009 34.0604 110.924 33.9756 110.819 33.9756Z" fill="#FF9900"/>
<path d="M113.653 5.66309H111.682C111.577 5.66309 111.492 5.74791 111.492 5.85254V7.83309C111.492 7.93772 111.577 8.02255 111.682 8.02255H113.653C113.758 8.02255 113.843 7.93772 113.843 7.83309V5.85254C113.843 5.74791 113.758 5.66309 113.653 5.66309Z" fill="#FF9900"/>
<path d="M113.653 8.49316H111.682C111.577 8.49316 111.492 8.57799 111.492 8.68262V10.6632C111.492 10.7678 111.577 10.8526 111.682 10.8526H113.653C113.758 10.8526 113.843 10.7678 113.843 10.6632V8.68262C113.843 8.57799 113.758 8.49316 113.653 8.49316Z" fill="#FF9900"/>
<path d="M113.653 11.3252H111.682C111.577 11.3252 111.492 11.41 111.492 11.5147V13.4952C111.492 13.5998 111.577 13.6847 111.682 13.6847H113.653C113.758 13.6847 113.843 13.5998 113.843 13.4952V11.5147C113.843 11.41 113.758 11.3252 113.653 11.3252Z" fill="#FF9900"/>
<path d="M113.653 14.1562H111.682C111.577 14.1562 111.492 14.2411 111.492 14.3457V16.3263C111.492 16.4309 111.577 16.5157 111.682 16.5157H113.653C113.758 16.5157 113.843 16.4309 113.843 16.3263V14.3457C113.843 14.2411 113.758 14.1562 113.653 14.1562Z" fill="#FF9900"/>
<path d="M113.653 16.9883H111.682C111.577 16.9883 111.492 17.0731 111.492 17.1777V19.1583C111.492 19.2629 111.577 19.3477 111.682 19.3477H113.653C113.758 19.3477 113.843 19.2629 113.843 19.1583V17.1777C113.843 17.0731 113.758 16.9883 113.653 16.9883Z" fill="#FF9900"/>
<path d="M113.653 19.8184H111.682C111.577 19.8184 111.492 19.9032 111.492 20.0078V21.9884C111.492 22.093 111.577 22.1778 111.682 22.1778H113.653C113.758 22.1778 113.843 22.093 113.843 21.9884V20.0078C113.843 19.9032 113.758 19.8184 113.653 19.8184Z" fill="#FF9900"/>
<path d="M113.653 22.6514H111.682C111.577 22.6514 111.492 22.7362 111.492 22.8408V24.8214C111.492 24.926 111.577 25.0108 111.682 25.0108H113.653C113.758 25.0108 113.843 24.926 113.843 24.8214V22.8408C113.843 22.7362 113.758 22.6514 113.653 22.6514Z" fill="#FF9900"/>
<path d="M113.653 25.4814H111.682C111.577 25.4814 111.492 25.5663 111.492 25.6709V27.6514C111.492 27.7561 111.577 27.8409 111.682 27.8409H113.653C113.758 27.8409 113.843 27.7561 113.843 27.6514V25.6709C113.843 25.5663 113.758 25.4814 113.653 25.4814Z" fill="#FF9900"/>
<path d="M113.653 28.3125H111.682C111.577 28.3125 111.492 28.3973 111.492 28.502V30.4825C111.492 30.5871 111.577 30.672 111.682 30.672H113.653C113.758 30.672 113.843 30.5871 113.843 30.4825V28.502C113.843 28.3973 113.758 28.3125 113.653 28.3125Z" fill="#FF9900"/>
<path d="M116.484 2.83203H114.513C114.408 2.83203 114.323 2.91685 114.323 3.02149V5.00204C114.323 5.10667 114.408 5.19149 114.513 5.19149H116.484C116.589 5.19149 116.674 5.10667 116.674 5.00203V3.02149C116.674 2.91685 116.589 2.83203 116.484 2.83203Z" fill="#FF9900"/>
<path d="M116.484 5.66309H114.513C114.408 5.66309 114.323 5.74791 114.323 5.85254V7.83309C114.323 7.93772 114.408 8.02255 114.513 8.02255H116.484C116.589 8.02255 116.674 7.93772 116.674 7.83309V5.85254C116.674 5.74791 116.589 5.66309 116.484 5.66309Z" fill="#FF9900"/>
<path d="M116.484 8.49316H114.513C114.408 8.49316 114.323 8.57799 114.323 8.68262V10.6632C114.323 10.7678 114.408 10.8526 114.513 10.8526H116.484C116.589 10.8526 116.674 10.7678 116.674 10.6632V8.68262C116.674 8.57799 116.589 8.49316 116.484 8.49316Z" fill="#FF9900"/>
<path d="M116.484 11.3252H114.513C114.408 11.3252 114.323 11.41 114.323 11.5147V13.4952C114.323 13.5998 114.408 13.6847 114.513 13.6847H116.484C116.589 13.6847 116.674 13.5998 116.674 13.4952V11.5147C116.674 11.41 116.589 11.3252 116.484 11.3252Z" fill="#FF9900"/>
<path d="M116.484 14.1562H114.513C114.408 14.1562 114.323 14.2411 114.323 14.3457V16.3263C114.323 16.4309 114.408 16.5157 114.513 16.5157H116.484C116.589 16.5157 116.674 16.4309 116.674 16.3263V14.3457C116.674 14.2411 116.589 14.1562 116.484 14.1562Z" fill="#FF9900"/>
<path d="M116.484 16.9883H114.513C114.408 16.9883 114.323 17.0731 114.323 17.1777V19.1583C114.323 19.2629 114.408 19.3477 114.513 19.3477H116.484C116.589 19.3477 116.674 19.2629 116.674 19.1583V17.1777C116.674 17.0731 116.589 16.9883 116.484 16.9883Z" fill="#FF9900"/>
<path d="M116.484 19.8184H114.513C114.408 19.8184 114.323 19.9032 114.323 20.0078V21.9884C114.323 22.093 114.408 22.1778 114.513 22.1778H116.484C116.589 22.1778 116.674 22.093 116.674 21.9884V20.0078C116.674 19.9032 116.589 19.8184 116.484 19.8184Z" fill="#FF9900"/>
<path d="M116.484 22.6514H114.513C114.408 22.6514 114.323 22.7362 114.323 22.8408V24.8214C114.323 24.926 114.408 25.0108 114.513 25.0108H116.484C116.589 25.0108 116.674 24.926 116.674 24.8214V22.8408C116.674 22.7362 116.589 22.6514 116.484 22.6514Z" fill="#FF9900"/>
<path d="M116.484 31.1436H114.513C114.408 31.1436 114.323 31.2284 114.323 31.333V33.3136C114.323 33.4182 114.408 33.503 114.513 33.503H116.484C116.589 33.503 116.674 33.4182 116.674 33.3136V31.333C116.674 31.2284 116.589 31.1436 116.484 31.1436Z" fill="#FF9900"/>
<path d="M119.317 0H117.346C117.241 0 117.156 0.0848236 117.156 0.189458V2.17C117.156 2.27464 117.241 2.35946 117.346 2.35946H119.317C119.422 2.35946 119.507 2.27464 119.507 2.17V0.189458C119.507 0.0848232 119.422 0 119.317 0Z" fill="#FF9900"/>
<path d="M119.317 5.66309H117.346C117.241 5.66309 117.156 5.74791 117.156 5.85254V7.83309C117.156 7.93772 117.241 8.02255 117.346 8.02255H119.317C119.422 8.02255 119.507 7.93772 119.507 7.83309V5.85254C119.507 5.74791 119.422 5.66309 119.317 5.66309Z" fill="#FF9900"/>
<path d="M119.317 8.49316H117.346C117.241 8.49316 117.156 8.57799 117.156 8.68262V10.6632C117.156 10.7678 117.241 10.8526 117.346 10.8526H119.317C119.422 10.8526 119.507 10.7678 119.507 10.6632V8.68262C119.507 8.57799 119.422 8.49316 119.317 8.49316Z" fill="#FF9900"/>
<path d="M119.317 11.3252H117.346C117.241 11.3252 117.156 11.41 117.156 11.5147V13.4952C117.156 13.5998 117.241 13.6847 117.346 13.6847H119.317C119.422 13.6847 119.507 13.5998 119.507 13.4952V11.5147C119.507 11.41 119.422 11.3252 119.317 11.3252Z" fill="#FF9900"/>
<path d="M119.317 14.1562H117.346C117.241 14.1562 117.156 14.2411 117.156 14.3457V16.3263C117.156 16.4309 117.241 16.5157 117.346 16.5157H119.317C119.422 16.5157 119.507 16.4309 119.507 16.3263V14.3457C119.507 14.2411 119.422 14.1562 119.317 14.1562Z" fill="#FF9900"/>
<path d="M119.317 16.9883H117.346C117.241 16.9883 117.156 17.0731 117.156 17.1777V19.1583C117.156 19.2629 117.241 19.3477 117.346 19.3477H119.317C119.422 19.3477 119.507 19.2629 119.507 19.1583V17.1777C119.507 17.0731 119.422 16.9883 119.317 16.9883Z" fill="#FF9900"/>
<path d="M119.317 19.8184H117.346C117.241 19.8184 117.156 19.9032 117.156 20.0078V21.9884C117.156 22.093 117.241 22.1778 117.346 22.1778H119.317C119.422 22.1778 119.507 22.093 119.507 21.9884V20.0078C119.507 19.9032 119.422 19.8184 119.317 19.8184Z" fill="#FF9900"/>
<path d="M122.15 2.83203H120.178C120.073 2.83203 119.988 2.91685 119.988 3.02149V5.00204C119.988 5.10667 120.073 5.19149 120.178 5.19149H122.15C122.254 5.19149 122.339 5.10667 122.339 5.00203V3.02149C122.339 2.91685 122.254 2.83203 122.15 2.83203Z" fill="#FF9900"/>
<path d="M122.15 5.66309H120.178C120.073 5.66309 119.988 5.74791 119.988 5.85254V7.83309C119.988 7.93772 120.073 8.02255 120.178 8.02255H122.15C122.254 8.02255 122.339 7.93772 122.339 7.83309V5.85254C122.339 5.74791 122.254 5.66309 122.15 5.66309Z" fill="#FF9900"/>
<path d="M122.15 8.49316H120.178C120.073 8.49316 119.988 8.57799 119.988 8.68262V10.6632C119.988 10.7678 120.073 10.8526 120.178 10.8526H122.15C122.254 10.8526 122.339 10.7678 122.339 10.6632V8.68262C122.339 8.57799 122.254 8.49316 122.15 8.49316Z" fill="#FF9900"/>
<path d="M122.15 11.3252H120.178C120.073 11.3252 119.988 11.41 119.988 11.5147V13.4952C119.988 13.5998 120.073 13.6847 120.178 13.6847H122.15C122.254 13.6847 122.339 13.5998 122.339 13.4952V11.5147C122.339 11.41 122.254 11.3252 122.15 11.3252Z" fill="#FF9900"/>
<path d="M122.15 14.1562H120.178C120.073 14.1562 119.988 14.2411 119.988 14.3457V16.3263C119.988 16.4309 120.073 16.5157 120.178 16.5157H122.15C122.254 16.5157 122.339 16.4309 122.339 16.3263V14.3457C122.339 14.2411 122.254 14.1562 122.15 14.1562Z" fill="#FF9900"/>
<path d="M122.15 16.9883H120.178C120.073 16.9883 119.988 17.0731 119.988 17.1777V19.1583C119.988 19.2629 120.073 19.3477 120.178 19.3477H122.15C122.254 19.3477 122.339 19.2629 122.339 19.1583V17.1777C122.339 17.0731 122.254 16.9883 122.15 16.9883Z" fill="#FF9900"/>
<path d="M122.15 19.8184H120.178C120.073 19.8184 119.988 19.9032 119.988 20.0078V21.9884C119.988 22.093 120.073 22.1778 120.178 22.1778H122.15C122.254 22.1778 122.339 22.093 122.339 21.9884V20.0078C122.339 19.9032 122.254 19.8184 122.15 19.8184Z" fill="#FF9900"/>
<path d="M122.15 22.6514H120.178C120.073 22.6514 119.988 22.7362 119.988 22.8408V24.8214C119.988 24.926 120.073 25.0108 120.178 25.0108H122.15C122.254 25.0108 122.339 24.926 122.339 24.8214V22.8408C122.339 22.7362 122.254 22.6514 122.15 22.6514Z" fill="#FF9900"/>
<path d="M124.983 2.83203H123.011C122.906 2.83203 122.821 2.91685 122.821 3.02149V5.00204C122.821 5.10667 122.906 5.19149 123.011 5.19149H124.983C125.087 5.19149 125.172 5.10667 125.172 5.00203V3.02149C125.172 2.91685 125.087 2.83203 124.983 2.83203Z" fill="#FF9900"/>
<path d="M124.983 5.66309H123.011C122.906 5.66309 122.821 5.74791 122.821 5.85254V7.83309C122.821 7.93772 122.906 8.02255 123.011 8.02255H124.983C125.087 8.02255 125.172 7.93772 125.172 7.83309V5.85254C125.172 5.74791 125.087 5.66309 124.983 5.66309Z" fill="#FF9900"/>
<path d="M124.983 8.49316H123.011C122.906 8.49316 122.821 8.57799 122.821 8.68262V10.6632C122.821 10.7678 122.906 10.8526 123.011 10.8526H124.983C125.087 10.8526 125.172 10.7678 125.172 10.6632V8.68262C125.172 8.57799 125.087 8.49316 124.983 8.49316Z" fill="#FF9900"/>
<path d="M124.983 11.3252H123.011C122.906 11.3252 122.821 11.41 122.821 11.5147V13.4952C122.821 13.5998 122.906 13.6847 123.011 13.6847H124.983C125.087 13.6847 125.172 13.5998 125.172 13.4952V11.5147C125.172 11.41 125.087 11.3252 124.983 11.3252Z" fill="#FF9900"/>
<path d="M124.983 14.1562H123.011C122.906 14.1562 122.821 14.2411 122.821 14.3457V16.3263C122.821 16.4309 122.906 16.5157 123.011 16.5157H124.983C125.087 16.5157 125.172 16.4309 125.172 16.3263V14.3457C125.172 14.2411 125.087 14.1562 124.983 14.1562Z" fill="#FF9900"/>
<path d="M124.983 16.9883H123.011C122.906 16.9883 122.821 17.0731 122.821 17.1777V19.1583C122.821 19.2629 122.906 19.3477 123.011 19.3477H124.983C125.087 19.3477 125.172 19.2629 125.172 19.1583V17.1777C125.172 17.0731 125.087 16.9883 124.983 16.9883Z" fill="#FF9900"/>
<path d="M124.983 19.8184H123.011C122.906 19.8184 122.821 19.9032 122.821 20.0078V21.9884C122.821 22.093 122.906 22.1778 123.011 22.1778H124.983C125.087 22.1778 125.172 22.093 125.172 21.9884V20.0078C125.172 19.9032 125.087 19.8184 124.983 19.8184Z" fill="#FF9900"/>
<path d="M127.815 0H125.843C125.738 0 125.653 0.0848236 125.653 0.189458V2.17C125.653 2.27464 125.738 2.35946 125.843 2.35946H127.815C127.919 2.35946 128.004 2.27464 128.004 2.17V0.189458C128.004 0.0848232 127.919 0 127.815 0Z" fill="#FF9900"/>
<path d="M127.815 2.83203H125.843C125.738 2.83203 125.653 2.91685 125.653 3.02149V5.00204C125.653 5.10667 125.738 5.19149 125.843 5.19149H127.815C127.919 5.19149 128.004 5.10667 128.004 5.00203V3.02149C128.004 2.91685 127.919 2.83203 127.815 2.83203Z" fill="#FF9900"/>
<path d="M127.815 5.66309H125.843C125.738 5.66309 125.653 5.74791 125.653 5.85254V7.83309C125.653 7.93772 125.738 8.02255 125.843 8.02255H127.815C127.919 8.02255 128.004 7.93772 128.004 7.83309V5.85254C128.004 5.74791 127.919 5.66309 127.815 5.66309Z" fill="#FF9900"/>
<path d="M127.815 8.49316H125.843C125.738 8.49316 125.653 8.57799 125.653 8.68262V10.6632C125.653 10.7678 125.738 10.8526 125.843 10.8526H127.815C127.919 10.8526 128.004 10.7678 128.004 10.6632V8.68262C128.004 8.57799 127.919 8.49316 127.815 8.49316Z" fill="#FF9900"/>
<path d="M127.815 11.3252H125.843C125.738 11.3252 125.653 11.41 125.653 11.5147V13.4952C125.653 13.5998 125.738 13.6847 125.843 13.6847H127.815C127.919 13.6847 128.004 13.5998 128.004 13.4952V11.5147C128.004 11.41 127.919 11.3252 127.815 11.3252Z" fill="#FF9900"/>
<path d="M127.815 14.1562H125.843C125.738 14.1562 125.653 14.2411 125.653 14.3457V16.3263C125.653 16.4309 125.738 16.5157 125.843 16.5157H127.815C127.919 16.5157 128.004 16.4309 128.004 16.3263V14.3457C128.004 14.2411 127.919 14.1562 127.815 14.1562Z" fill="#FF9900"/>
<path d="M127.815 16.9883H125.843C125.738 16.9883 125.653 17.0731 125.653 17.1777V19.1583C125.653 19.2629 125.738 19.3477 125.843 19.3477H127.815C127.919 19.3477 128.004 19.2629 128.004 19.1583V17.1777C128.004 17.0731 127.919 16.9883 127.815 16.9883Z" fill="#FF9900"/>
<path d="M127.815 19.8184H125.843C125.738 19.8184 125.653 19.9032 125.653 20.0078V21.9884C125.653 22.093 125.738 22.1778 125.843 22.1778H127.815C127.919 22.1778 128.004 22.093 128.004 21.9884V20.0078C128.004 19.9032 127.919 19.8184 127.815 19.8184Z" fill="#FF9900"/>
<path d="M127.815 22.6514H125.843C125.738 22.6514 125.653 22.7362 125.653 22.8408V24.8214C125.653 24.926 125.738 25.0108 125.843 25.0108H127.815C127.919 25.0108 128.004 24.926 128.004 24.8214V22.8408C128.004 22.7362 127.919 22.6514 127.815 22.6514Z" fill="#FF9900"/>
<path d="M127.815 28.3125H125.843C125.738 28.3125 125.653 28.3973 125.653 28.502V30.4825C125.653 30.5871 125.738 30.672 125.843 30.672H127.815C127.919 30.672 128.004 30.5871 128.004 30.4825V28.502C128.004 28.3973 127.919 28.3125 127.815 28.3125Z" fill="#FF9900"/>
<path d="M130.648 2.83203H128.676C128.571 2.83203 128.486 2.91685 128.486 3.02149V5.00204C128.486 5.10667 128.571 5.19149 128.676 5.19149H130.648C130.752 5.19149 130.837 5.10667 130.837 5.00203V3.02149C130.837 2.91685 130.752 2.83203 130.648 2.83203Z" fill="#FF9900"/>
<path d="M130.648 5.66309H128.676C128.571 5.66309 128.486 5.74791 128.486 5.85254V7.83309C128.486 7.93772 128.571 8.02255 128.676 8.02255H130.648C130.752 8.02255 130.837 7.93772 130.837 7.83309V5.85254C130.837 5.74791 130.752 5.66309 130.648 5.66309Z" fill="#FF9900"/>
<path d="M130.648 8.49316H128.676C128.571 8.49316 128.486 8.57799 128.486 8.68262V10.6632C128.486 10.7678 128.571 10.8526 128.676 10.8526H130.648C130.752 10.8526 130.837 10.7678 130.837 10.6632V8.68262C130.837 8.57799 130.752 8.49316 130.648 8.49316Z" fill="#FF9900"/>
<path d="M130.648 11.3252H128.676C128.571 11.3252 128.486 11.41 128.486 11.5147V13.4952C128.486 13.5998 128.571 13.6847 128.676 13.6847H130.648C130.752 13.6847 130.837 13.5998 130.837 13.4952V11.5147C130.837 11.41 130.752 11.3252 130.648 11.3252Z" fill="#FF9900"/>
<path d="M130.648 14.1562H128.676C128.571 14.1562 128.486 14.2411 128.486 14.3457V16.3263C128.486 16.4309 128.571 16.5157 128.676 16.5157H130.648C130.752 16.5157 130.837 16.4309 130.837 16.3263V14.3457C130.837 14.2411 130.752 14.1562 130.648 14.1562Z" fill="#FF9900"/>
<path d="M130.648 16.9883H128.676C128.571 16.9883 128.486 17.0731 128.486 17.1777V19.1583C128.486 19.2629 128.571 19.3477 128.676 19.3477H130.648C130.752 19.3477 130.837 19.2629 130.837 19.1583V17.1777C130.837 17.0731 130.752 16.9883 130.648 16.9883Z" fill="#FF9900"/>
<path d="M130.648 19.8184H128.676C128.571 19.8184 128.486 19.9032 128.486 20.0078V21.9884C128.486 22.093 128.571 22.1778 128.676 22.1778H130.648C130.752 22.1778 130.837 22.093 130.837 21.9884V20.0078C130.837 19.9032 130.752 19.8184 130.648 19.8184Z" fill="#FF9900"/>
<path d="M130.648 22.6514H128.676C128.571 22.6514 128.486 22.7362 128.486 22.8408V24.8214C128.486 24.926 128.571 25.0108 128.676 25.0108H130.648C130.752 25.0108 130.837 24.926 130.837 24.8214V22.8408C130.837 22.7362 130.752 22.6514 130.648 22.6514Z" fill="#FF9900"/>
<path d="M130.648 28.3125H128.676C128.571 28.3125 128.486 28.3973 128.486 28.502V30.4825C128.486 30.5871 128.571 30.672 128.676 30.672H130.648C130.752 30.672 130.837 30.5871 130.837 30.4825V28.502C130.837 28.3973 130.752 28.3125 130.648 28.3125Z" fill="#FF9900"/>
<path d="M130.648 31.1436H128.676C128.571 31.1436 128.486 31.2284 128.486 31.333V33.3136C128.486 33.4182 128.571 33.503 128.676 33.503H130.648C130.752 33.503 130.837 33.4182 130.837 33.3136V31.333C130.837 31.2284 130.752 31.1436 130.648 31.1436Z" fill="#FF9900"/>
<path d="M130.648 33.9756H128.676C128.571 33.9756 128.486 34.0604 128.486 34.165V36.1456C128.486 36.2502 128.571 36.335 128.676 36.335H130.648C130.752 36.335 130.837 36.2502 130.837 36.1456V34.165C130.837 34.0604 130.752 33.9756 130.648 33.9756Z" fill="#FF9900"/>
<path d="M133.481 2.83203H131.509C131.404 2.83203 131.319 2.91685 131.319 3.02149V5.00204C131.319 5.10667 131.404 5.19149 131.509 5.19149H133.481C133.585 5.19149 133.67 5.10667 133.67 5.00203V3.02149C133.67 2.91685 133.585 2.83203 133.481 2.83203Z" fill="#FF9900"/>
<path d="M133.481 5.66309H131.509C131.404 5.66309 131.319 5.74791 131.319 5.85254V7.83309C131.319 7.93772 131.404 8.02255 131.509 8.02255H133.481C133.585 8.02255 133.67 7.93772 133.67 7.83309V5.85254C133.67 5.74791 133.585 5.66309 133.481 5.66309Z" fill="#FF9900"/>
<path d="M133.481 8.49316H131.509C131.404 8.49316 131.319 8.57799 131.319 8.68262V10.6632C131.319 10.7678 131.404 10.8526 131.509 10.8526H133.481C133.585 10.8526 133.67 10.7678 133.67 10.6632V8.68262C133.67 8.57799 133.585 8.49316 133.481 8.49316Z" fill="#FF9900"/>
<path d="M133.481 11.3252H131.509C131.404 11.3252 131.319 11.41 131.319 11.5147V13.4952C131.319 13.5998 131.404 13.6847 131.509 13.6847H133.481C133.585 13.6847 133.67 13.5998 133.67 13.4952V11.5147C133.67 11.41 133.585 11.3252 133.481 11.3252Z" fill="#FF9900"/>
<path d="M133.481 14.1562H131.509C131.404 14.1562 131.319 14.2411 131.319 14.3457V16.3263C131.319 16.4309 131.404 16.5157 131.509 16.5157H133.481C133.585 16.5157 133.67 16.4309 133.67 16.3263V14.3457C133.67 14.2411 133.585 14.1562 133.481 14.1562Z" fill="#FF9900"/>
<path d="M133.481 16.9883H131.509C131.404 16.9883 131.319 17.0731 131.319 17.1777V19.1583C131.319 19.2629 131.404 19.3477 131.509 19.3477H133.481C133.585 19.3477 133.67 19.2629 133.67 19.1583V17.1777C133.67 17.0731 133.585 16.9883 133.481 16.9883Z" fill="#FF9900"/>
<path d="M133.481 19.8184H131.509C131.404 19.8184 131.319 19.9032 131.319 20.0078V21.9884C131.319 22.093 131.404 22.1778 131.509 22.1778H133.481C133.585 22.1778 133.67 22.093 133.67 21.9884V20.0078C133.67 19.9032 133.585 19.8184 133.481 19.8184Z" fill="#FF9900"/>
<path d="M133.481 28.3125H131.509C131.404 28.3125 131.319 28.3973 131.319 28.502V30.4825C131.319 30.5871 131.404 30.672 131.509 30.672H133.481C133.585 30.672 133.67 30.5871 133.67 30.4825V28.502C133.67 28.3973 133.585 28.3125 133.481 28.3125Z" fill="#FF9900"/>
<path d="M133.481 31.1436H131.509C131.404 31.1436 131.319 31.2284 131.319 31.333V33.3136C131.319 33.4182 131.404 33.503 131.509 33.503H133.481C133.585 33.503 133.67 33.4182 133.67 33.3136V31.333C133.67 31.2284 133.585 31.1436 133.481 31.1436Z" fill="#FF9900"/>
<path d="M133.481 33.9756H131.509C131.404 33.9756 131.319 34.0604 131.319 34.165V36.1456C131.319 36.2502 131.404 36.335 131.509 36.335H133.481C133.585 36.335 133.67 36.2502 133.67 36.1456V34.165C133.67 34.0604 133.585 33.9756 133.481 33.9756Z" fill="#FF9900"/>
<path d="M136.312 2.83203H134.34C134.235 2.83203 134.15 2.91685 134.15 3.02149V5.00204C134.15 5.10667 134.235 5.19149 134.34 5.19149H136.312C136.416 5.19149 136.501 5.10667 136.501 5.00203V3.02149C136.501 2.91685 136.416 2.83203 136.312 2.83203Z" fill="#FF9900"/>
<path d="M136.312 5.66309H134.34C134.235 5.66309 134.15 5.74791 134.15 5.85254V7.83309C134.15 7.93772 134.235 8.02255 134.34 8.02255H136.312C136.416 8.02255 136.501 7.93772 136.501 7.83309V5.85254C136.501 5.74791 136.416 5.66309 136.312 5.66309Z" fill="#FF9900"/>
<path d="M136.312 8.49316H134.34C134.235 8.49316 134.15 8.57799 134.15 8.68262V10.6632C134.15 10.7678 134.235 10.8526 134.34 10.8526H136.312C136.416 10.8526 136.501 10.7678 136.501 10.6632V8.68262C136.501 8.57799 136.416 8.49316 136.312 8.49316Z" fill="#FF9900"/>
<path d="M136.312 11.3252H134.34C134.235 11.3252 134.15 11.41 134.15 11.5147V13.4952C134.15 13.5998 134.235 13.6847 134.34 13.6847H136.312C136.416 13.6847 136.501 13.5998 136.501 13.4952V11.5147C136.501 11.41 136.416 11.3252 136.312 11.3252Z" fill="#FF9900"/>
<path d="M136.312 16.9883H134.34C134.235 16.9883 134.15 17.0731 134.15 17.1777V19.1583C134.15 19.2629 134.235 19.3477 134.34 19.3477H136.312C136.416 19.3477 136.501 19.2629 136.501 19.1583V17.1777C136.501 17.0731 136.416 16.9883 136.312 16.9883Z" fill="#FF9900"/>
<path d="M136.312 28.3125H134.34C134.235 28.3125 134.15 28.3973 134.15 28.502V30.4825C134.15 30.5871 134.235 30.672 134.34 30.672H136.312C136.416 30.672 136.501 30.5871 136.501 30.4825V28.502C136.501 28.3973 136.416 28.3125 136.312 28.3125Z" fill="#FF9900"/>
<path d="M136.312 31.1436H134.34C134.235 31.1436 134.15 31.2284 134.15 31.333V33.3136C134.15 33.4182 134.235 33.503 134.34 33.503H136.312C136.416 33.503 136.501 33.4182 136.501 33.3136V31.333C136.501 31.2284 136.416 31.1436 136.312 31.1436Z" fill="#FF9900"/>
<path d="M136.312 33.9756H134.34C134.235 33.9756 134.15 34.0604 134.15 34.165V36.1456C134.15 36.2502 134.235 36.335 134.34 36.335H136.312C136.416 36.335 136.501 36.2502 136.501 36.1456V34.165C136.501 34.0604 136.416 33.9756 136.312 33.9756Z" fill="#FF9900"/>
<path d="M139.146 5.66309H137.174C137.069 5.66309 136.984 5.74791 136.984 5.85254V7.83309C136.984 7.93772 137.069 8.02255 137.174 8.02255H139.146C139.25 8.02255 139.335 7.93772 139.335 7.83309V5.85254C139.335 5.74791 139.25 5.66309 139.146 5.66309Z" fill="#FF9900"/>
<path d="M139.146 8.49316H137.174C137.069 8.49316 136.984 8.57799 136.984 8.68262V10.6632C136.984 10.7678 137.069 10.8526 137.174 10.8526H139.146C139.25 10.8526 139.335 10.7678 139.335 10.6632V8.68262C139.335 8.57799 139.25 8.49316 139.146 8.49316Z" fill="#FF9900"/>
<path d="M139.146 11.3252H137.174C137.069 11.3252 136.984 11.41 136.984 11.5147V13.4952C136.984 13.5998 137.069 13.6847 137.174 13.6847H139.146C139.25 13.6847 139.335 13.5998 139.335 13.4952V11.5147C139.335 11.41 139.25 11.3252 139.146 11.3252Z" fill="#FF9900"/>
<path d="M139.146 14.1562H137.174C137.069 14.1562 136.984 14.2411 136.984 14.3457V16.3263C136.984 16.4309 137.069 16.5157 137.174 16.5157H139.146C139.25 16.5157 139.335 16.4309 139.335 16.3263V14.3457C139.335 14.2411 139.25 14.1562 139.146 14.1562Z" fill="#FF9900"/>
<path d="M139.146 31.1436H137.174C137.069 31.1436 136.984 31.2284 136.984 31.333V33.3136C136.984 33.4182 137.069 33.503 137.174 33.503H139.146C139.25 33.503 139.335 33.4182 139.335 33.3136V31.333C139.335 31.2284 139.25 31.1436 139.146 31.1436Z" fill="#FF9900"/>
<path d="M141.978 5.66309H140.006C139.901 5.66309 139.816 5.74791 139.816 5.85254V7.83309C139.816 7.93772 139.901 8.02255 140.006 8.02255H141.978C142.082 8.02255 142.167 7.93772 142.167 7.83309V5.85254C142.167 5.74791 142.082 5.66309 141.978 5.66309Z" fill="#FF9900"/>
<path d="M141.978 8.49316H140.006C139.901 8.49316 139.816 8.57799 139.816 8.68262V10.6632C139.816 10.7678 139.901 10.8526 140.006 10.8526H141.978C142.082 10.8526 142.167 10.7678 142.167 10.6632V8.68262C142.167 8.57799 142.082 8.49316 141.978 8.49316Z" fill="#FF9900"/>
<path d="M141.978 36.8076H140.006C139.901 36.8076 139.816 36.8924 139.816 36.9971V38.9776C139.816 39.0823 139.901 39.1671 140.006 39.1671H141.978C142.082 39.1671 142.167 39.0823 142.167 38.9776V36.9971C142.167 36.8924 142.082 36.8076 141.978 36.8076Z" fill="#FF9900"/>
<path d="M144.811 8.49316H142.839C142.734 8.49316 142.649 8.57799 142.649 8.68262V10.6632C142.649 10.7678 142.734 10.8526 142.839 10.8526H144.811C144.915 10.8526 145 10.7678 145 10.6632V8.68262C145 8.57799 144.915 8.49316 144.811 8.49316Z" fill="#FF9900"/>
<path d="M17.1986 64.8069L14 67.0882C14.4337 67.9829 15.0391 68.806 15.8162 69.5575C16.5932 70.309 17.5058 70.9084 18.554 71.3558C19.6202 71.7852 20.7677 71.9999 21.9965 71.9999C22.882 71.9999 23.7404 71.8657 24.5717 71.5973C25.421 71.3468 26.171 70.9711 26.8216 70.47C27.4902 69.969 28.0143 69.3517 28.3938 68.6181C28.7913 67.8666 28.9901 67.0167 28.9901 66.0683C28.9901 65.281 28.8636 64.5832 28.6106 63.9748C28.3576 63.3665 28.0052 62.8297 27.5534 62.3645C27.1197 61.8992 26.6137 61.5056 26.0355 61.1835C25.4572 60.8435 24.8337 60.5483 24.1651 60.2978C23.2796 59.9936 22.5206 59.7073 21.8881 59.4389C21.2737 59.1705 20.7948 58.8753 20.4514 58.5532C20.1262 58.2311 19.9635 57.8554 19.9635 57.4259C19.9635 57.0144 20.1352 56.6744 20.4785 56.406C20.8219 56.1197 21.3189 55.9766 21.9694 55.9766C22.4573 55.9766 22.9091 56.075 23.3248 56.2718C23.7585 56.4508 24.147 56.7102 24.4904 57.0502C24.8518 57.3723 25.168 57.757 25.4391 58.2043L28.9359 56.2718C28.6106 55.6277 28.1408 54.9925 27.5263 54.3662C26.9119 53.74 26.1348 53.2211 25.1951 52.8095C24.2735 52.398 23.1802 52.1922 21.9152 52.1922C20.6864 52.1922 19.5659 52.4069 18.554 52.8364C17.56 53.2479 16.7649 53.8563 16.1686 54.6615C15.5903 55.4666 15.3011 56.4239 15.3011 57.5333C15.3011 58.4637 15.4728 59.26 15.8162 59.922C16.1595 60.5662 16.5932 61.1209 17.1173 61.5861C17.6414 62.0334 18.1925 62.4002 18.7708 62.6865C19.3672 62.9728 19.8912 63.1965 20.343 63.3575C21.2646 63.6975 22.0056 64.0017 22.5658 64.2701C23.126 64.5385 23.5326 64.8248 23.7856 65.1289C24.0386 65.4152 24.1651 65.7999 24.1651 66.2831C24.1651 66.8556 23.9482 67.3119 23.5145 67.6519C23.0808 67.974 22.5296 68.135 21.861 68.135C21.2285 68.135 20.6231 68.0008 20.0448 67.7324C19.4846 67.464 18.9606 67.0793 18.4726 66.5783C18.0028 66.0773 17.5781 65.4868 17.1986 64.8069Z" fill="#262626"/>
<path d="M36.9324 62.3875L42.1098 70.2247L47.3144 62.3875L48.4529 71.9692H53.2779L50.2148 52.2421L42.1098 63.7026L34.032 52.2421L30.9689 71.9692H35.7939L36.9324 62.3875Z" fill="#262626"/>
<path d="M54.3249 64.141H60.0715V60.625H54.3249V64.141Z" fill="#262626"/>
<path d="M62.2043 52.2421V71.9692H74.4024V67.496H66.7854V52.2421H62.2043Z" fill="#262626"/>
<path d="M78.9305 62.0155C78.9305 60.9062 79.1474 59.931 79.5811 59.09C80.0329 58.2311 80.6563 57.5601 81.4515 57.077C82.2647 56.5939 83.2134 56.3524 84.2977 56.3524C85.4 56.3524 86.3488 56.5939 87.1439 57.077C87.939 57.5601 88.5535 58.2311 88.9872 59.09C89.4209 59.931 89.6377 60.9062 89.6377 62.0155C89.6377 63.1249 89.4118 64.109 88.9601 64.9679C88.5264 65.8089 87.9029 66.4709 87.0897 66.954C86.2946 67.4372 85.3639 67.6787 84.2977 67.6787C83.2134 67.6787 82.2647 67.4372 81.4515 66.954C80.6563 66.4709 80.0329 65.8089 79.5811 64.9679C79.1474 64.109 78.9305 63.1249 78.9305 62.0155ZM74.0784 62.0155C74.0784 63.4649 74.3223 64.7979 74.8103 66.0147C75.3163 67.2314 76.021 68.2871 76.9246 69.1817C77.8462 70.0764 78.9305 70.7742 80.1774 71.2752C81.4244 71.7584 82.7978 71.9999 84.2977 71.9999C85.7795 71.9999 87.1439 71.7584 88.3908 71.2752C89.6377 70.7742 90.713 70.0764 91.6165 69.1817C92.5382 68.2871 93.2429 67.2314 93.7309 66.0147C94.2369 64.7979 94.4899 63.4649 94.4899 62.0155C94.4899 60.5662 94.2369 59.2421 93.7309 58.0433C93.2249 56.8444 92.5111 55.8066 91.5894 54.9299C90.6678 54.0531 89.5835 53.3821 88.3366 52.9169C87.1077 52.4338 85.7614 52.1922 84.2977 52.1922C82.852 52.1922 81.5057 52.4338 80.2588 52.9169C79.0118 53.3821 77.9276 54.0531 77.0059 54.9299C76.0843 55.8066 75.3614 56.8444 74.8374 58.0433C74.3314 59.2421 74.0784 60.5662 74.0784 62.0155Z" fill="#262626"/>
<path d="M106.289 64.619H111.331C111.168 65.1021 110.943 65.5584 110.653 65.9878C110.382 66.3994 110.048 66.7662 109.65 67.0882C109.253 67.3924 108.774 67.634 108.214 67.8129C107.654 67.974 107.03 68.0545 106.343 68.0545C105.223 68.0545 104.229 67.8129 103.362 67.3298C102.512 66.8288 101.835 66.131 101.329 65.2363C100.841 64.3238 100.597 63.2502 100.597 62.0155C100.597 60.763 100.85 59.7073 101.356 58.8485C101.88 57.9717 102.576 57.3007 103.443 56.8355C104.328 56.3702 105.295 56.1376 106.343 56.1376C107.446 56.1376 108.358 56.3881 109.081 56.8892C109.822 57.3723 110.409 57.9896 110.843 58.7411L114.909 56.6476C114.313 55.7708 113.599 55.0014 112.768 54.3394C111.955 53.6594 111.015 53.1316 109.949 52.7558C108.882 52.3801 107.681 52.1922 106.343 52.1922C104.843 52.1922 103.452 52.4248 102.169 52.89C100.886 53.3553 99.7655 54.0173 98.8077 54.8762C97.8499 55.735 97.109 56.7728 96.5849 57.9896C96.0609 59.1884 95.7988 60.5304 95.7988 62.0155C95.7988 63.5007 96.0518 64.8605 96.5578 66.0952C97.0819 67.3119 97.8047 68.3676 98.7264 69.2623C99.648 70.139 100.741 70.819 102.006 71.3021C103.271 71.7673 104.663 71.9999 106.181 71.9999C107.789 71.9999 109.217 71.7226 110.464 71.1679C111.711 70.5953 112.75 69.808 113.581 68.806C114.412 67.804 115.027 66.6499 115.424 65.3437C115.822 64.0375 115.975 62.6328 115.885 61.1298H106.289V64.619Z" fill="#262626"/>
<path d="M118.418 52.1845V71.9688H120.749H123.03L123.081 52.1845H120.749H118.418Z" fill="#262626"/>
<path d="M128.646 64.8069L125.447 67.0882C125.881 67.9829 126.487 68.806 127.264 69.5575C128.041 70.309 128.953 70.9084 130.001 71.3558C131.068 71.7852 132.215 71.9999 133.444 71.9999C134.329 71.9999 135.188 71.8657 136.019 71.5973C136.868 71.3468 137.618 70.9711 138.269 70.47C138.938 69.969 139.462 69.3517 139.841 68.6181C140.239 67.8666 140.438 67.0167 140.438 66.0683C140.438 65.281 140.311 64.5832 140.058 63.9748C139.805 63.3665 139.453 62.8297 139.001 62.3645C138.567 61.8992 138.061 61.5056 137.483 61.1835C136.905 60.8435 136.281 60.5483 135.612 60.2978C134.727 59.9936 133.968 59.7073 133.336 59.4389C132.721 59.1705 132.242 58.8753 131.899 58.5532C131.574 58.2311 131.411 57.8554 131.411 57.4259C131.411 57.0144 131.716 56.6663 132.043 56.5382C132.237 56.4622 132.341 56.432 132.524 56.3982C132.622 56.3801 132.691 56.3723 132.794 56.3668C132.846 56.364 132.965 56.3613 133.011 56.3608C133.146 56.3595 133.264 56.3608 133.363 56.3608C133.851 56.3608 136.031 56.3608 136.555 56.3608H137.03H137.387H140.438C140.438 56.3608 139.588 54.9925 138.974 54.3662C138.359 53.74 137.582 53.2211 136.643 52.8095C135.721 52.398 134.628 52.1922 133.363 52.1922C132.134 52.1922 131.013 52.4069 130.001 52.8364C129.007 53.2479 128.212 53.8563 127.616 54.6615C127.038 55.4666 126.749 56.4239 126.749 57.5333C126.749 58.4637 126.92 59.26 127.264 59.922C127.607 60.5662 128.041 61.1209 128.565 61.5861C129.089 62.0334 129.64 62.4002 130.218 62.6865C130.815 62.9728 131.339 63.1965 131.79 63.3575C132.712 63.6975 133.453 64.0017 134.013 64.2701C134.573 64.5385 134.98 64.8248 135.233 65.1289C135.486 65.4152 135.612 65.7999 135.612 66.2831C135.612 66.8556 135.396 67.3119 134.962 67.6519C134.528 67.974 133.977 68.135 133.308 68.135C132.676 68.135 132.071 68.0008 131.492 67.7324C130.932 67.464 130.408 67.0793 129.92 66.5783C129.45 66.0773 129.026 65.4868 128.646 64.8069Z" fill="#262626"/>
<path d="M133.363 56.3608C137.354 56.3608 143.584 56.3608 143.584 56.3608V71.9688H148.165V56.3608H153.566V52.1564L133.332 52.1925C133.332 52.1925 133.351 54.733 133.363 56.3608Z" fill="#262626"/>
<path d="M155.665 52.1922V71.9688H160.328V52.1922H155.665Z" fill="#262626"/>
<path d="M167.816 62.0155C167.816 60.8525 168.078 59.8594 168.602 59.0363C169.126 58.2132 169.813 57.587 170.662 57.1575C171.529 56.7281 172.478 56.5134 173.508 56.5134C174.412 56.5134 175.207 56.6297 175.894 56.8623C176.58 57.077 177.195 57.3812 177.737 57.7749C178.279 58.1506 178.758 58.5532 179.173 58.9826V54.0978C178.415 53.5073 177.583 53.0421 176.68 52.7022C175.776 52.3622 174.629 52.1922 173.237 52.1922C171.719 52.1922 170.319 52.4248 169.036 52.89C167.752 53.3553 166.65 54.0262 165.728 54.903C164.807 55.7798 164.093 56.8176 163.587 58.0164C163.081 59.2153 162.828 60.5483 162.828 62.0155C162.828 63.4828 163.081 64.8158 163.587 66.0147C164.093 67.2135 164.807 68.2513 165.728 69.1281C166.65 70.0048 167.752 70.6758 169.036 71.141C170.319 71.6063 171.719 71.8389 173.237 71.8389C174.629 71.8389 175.776 71.6689 176.68 71.3289C177.583 70.9889 178.415 70.5237 179.173 69.9333V65.0484C178.758 65.4779 178.279 65.8805 177.737 66.2562C177.195 66.632 176.58 66.9361 175.894 67.1688C175.207 67.4014 174.412 67.5177 173.508 67.5177C172.478 67.5177 171.529 67.303 170.662 66.8735C169.813 66.4441 169.126 65.8178 168.602 64.9947C168.078 64.1538 167.816 63.1607 167.816 62.0155Z" fill="#262626"/>
<path d="M185.037 68.3454H195.067L194.768 64.8831H185.362L185.037 68.3454ZM189.998 60.0788L192.681 66.1714L192.518 67.3255L194.795 71.9688H200L189.998 52L180.022 71.9688H185.2L187.558 67.1376L187.341 66.1445L189.998 60.0788Z" fill="#262626"/>
<path fill-rule="evenodd" clip-rule="evenodd" d="M0 23.9727C0 22.3158 1.34315 20.9727 3 20.9727H71C71.5523 20.9727 72 21.4204 72 21.9727C72 22.5249 71.5523 22.9727 71 22.9727H3C2.44772 22.9727 2 23.4204 2 23.9727V88.0282C2 88.5805 2.44771 89.0282 3 89.0282H16C16.5523 89.0282 17 89.4759 17 90.0282C17 90.5805 16.5523 91.0282 16 91.0282H3C1.34315 91.0282 0 89.6851 0 88.0282V23.9727ZM140 21.9727C140 21.4204 140.448 20.9727 141 20.9727H211C212.657 20.9727 214 22.3158 214 23.9727V88.0282C214 89.6851 212.657 91.0282 211 91.0282H198C197.448 91.0282 197 90.5805 197 90.0282C197 89.4759 197.448 89.0282 198 89.0282H211C211.552 89.0282 212 88.5805 212 88.0282V23.9727C212 23.4204 211.552 22.9727 211 22.9727H141C140.448 22.9727 140 22.5249 140 21.9727Z" fill="#262626"/>
<path d="M30.53 86.03L28.51 93H27.49L25.87 87.39L24.19 93L23.18 93.01L21.23 86.03H22.2L23.72 91.94L25.4 86.03H26.42L28.02 91.92L29.55 86.03H30.53ZM36.8259 90.05C36.8259 90.2233 36.8159 90.4067 36.7959 90.6H32.4159C32.4492 91.14 32.6325 91.5633 32.9659 91.87C33.3059 92.17 33.7159 92.32 34.1959 92.32C34.5892 92.32 34.9159 92.23 35.1759 92.05C35.4425 91.8633 35.6292 91.6167 35.7359 91.31H36.7159C36.5692 91.8367 36.2759 92.2667 35.8359 92.6C35.3959 92.9267 34.8492 93.09 34.1959 93.09C33.6759 93.09 33.2092 92.9733 32.7959 92.74C32.3892 92.5067 32.0692 92.1767 31.8359 91.75C31.6025 91.3167 31.4859 90.8167 31.4859 90.25C31.4859 89.6833 31.5992 89.1867 31.8259 88.76C32.0525 88.3333 32.3692 88.0067 32.7759 87.78C33.1892 87.5467 33.6625 87.43 34.1959 87.43C34.7159 87.43 35.1759 87.5433 35.5759 87.77C35.9759 87.9967 36.2825 88.31 36.4959 88.71C36.7159 89.1033 36.8259 89.55 36.8259 90.05ZM35.8859 89.86C35.8859 89.5133 35.8092 89.2167 35.6559 88.97C35.5025 88.7167 35.2925 88.5267 35.0259 88.4C34.7659 88.2667 34.4759 88.2 34.1559 88.2C33.6959 88.2 33.3025 88.3467 32.9759 88.64C32.6559 88.9333 32.4725 89.34 32.4259 89.86H35.8859ZM48.363 86.08V93H47.453V87.84L45.153 93H44.513L42.203 87.83V93H41.293V86.08H42.273L44.833 91.8L47.393 86.08H48.363ZM52.5963 93.09C52.083 93.09 51.6163 92.9733 51.1963 92.74C50.783 92.5067 50.4563 92.1767 50.2163 91.75C49.983 91.3167 49.8663 90.8167 49.8663 90.25C49.8663 89.69 49.9863 89.1967 50.2263 88.77C50.473 88.3367 50.8063 88.0067 51.2263 87.78C51.6463 87.5467 52.1163 87.43 52.6363 87.43C53.1563 87.43 53.6263 87.5467 54.0463 87.78C54.4663 88.0067 54.7963 88.3333 55.0363 88.76C55.283 89.1867 55.4063 89.6833 55.4063 90.25C55.4063 90.8167 55.2797 91.3167 55.0263 91.75C54.7797 92.1767 54.443 92.5067 54.0163 92.74C53.5897 92.9733 53.1163 93.09 52.5963 93.09ZM52.5963 92.29C52.923 92.29 53.2297 92.2133 53.5163 92.06C53.803 91.9067 54.033 91.6767 54.2063 91.37C54.3863 91.0633 54.4763 90.69 54.4763 90.25C54.4763 89.81 54.3897 89.4367 54.2163 89.13C54.043 88.8233 53.8163 88.5967 53.5363 88.45C53.2563 88.2967 52.953 88.22 52.6263 88.22C52.293 88.22 51.9863 88.2967 51.7063 88.45C51.433 88.5967 51.213 88.8233 51.0463 89.13C50.8797 89.4367 50.7963 89.81 50.7963 90.25C50.7963 90.6967 50.8763 91.0733 51.0363 91.38C51.203 91.6867 51.423 91.9167 51.6963 92.07C51.9697 92.2167 52.2697 92.29 52.5963 92.29ZM58.9428 92.16L60.6428 87.52H61.6128L59.4628 93H58.4028L56.2528 87.52H57.2328L58.9428 92.16ZM67.8083 90.05C67.8083 90.2233 67.7983 90.4067 67.7783 90.6H63.3983C63.4316 91.14 63.6149 91.5633 63.9483 91.87C64.2883 92.17 64.6983 92.32 65.1783 92.32C65.5716 92.32 65.8983 92.23 66.1583 92.05C66.4249 91.8633 66.6116 91.6167 66.7183 91.31H67.6983C67.5516 91.8367 67.2583 92.2667 66.8183 92.6C66.3783 92.9267 65.8316 93.09 65.1783 93.09C64.6583 93.09 64.1916 92.9733 63.7783 92.74C63.3716 92.5067 63.0516 92.1767 62.8183 91.75C62.5849 91.3167 62.4683 90.8167 62.4683 90.25C62.4683 89.6833 62.5816 89.1867 62.8083 88.76C63.0349 88.3333 63.3516 88.0067 63.7583 87.78C64.1716 87.5467 64.6449 87.43 65.1783 87.43C65.6983 87.43 66.1583 87.5433 66.5583 87.77C66.9583 87.9967 67.2649 88.31 67.4783 88.71C67.6983 89.1033 67.8083 89.55 67.8083 90.05ZM66.8683 89.86C66.8683 89.5133 66.7916 89.2167 66.6383 88.97C66.4849 88.7167 66.2749 88.5267 66.0083 88.4C65.7483 88.2667 65.4583 88.2 65.1383 88.2C64.6783 88.2 64.2849 88.3467 63.9583 88.64C63.6383 88.9333 63.4549 89.34 63.4083 89.86H66.8683ZM70.4895 86.03L70.3795 91.03H69.6195L69.5095 86.03H70.4895ZM70.0395 93.06C69.8661 93.06 69.7195 93 69.5995 92.88C69.4795 92.76 69.4195 92.6133 69.4195 92.44C69.4195 92.2667 69.4795 92.12 69.5995 92C69.7195 91.88 69.8661 91.82 70.0395 91.82C70.2061 91.82 70.3461 91.88 70.4595 92C70.5795 92.12 70.6395 92.2667 70.6395 92.44C70.6395 92.6133 70.5795 92.76 70.4595 92.88C70.3461 93 70.2061 93.06 70.0395 93.06ZM80.434 86.03L78.164 90.37V93H77.254V90.37L74.974 86.03H75.984L77.704 89.56L79.424 86.03H80.434ZM84.0838 93.09C83.5705 93.09 83.1038 92.9733 82.6838 92.74C82.2705 92.5067 81.9438 92.1767 81.7038 91.75C81.4705 91.3167 81.3538 90.8167 81.3538 90.25C81.3538 89.69 81.4738 89.1967 81.7138 88.77C81.9605 88.3367 82.2938 88.0067 82.7138 87.78C83.1338 87.5467 83.6038 87.43 84.1238 87.43C84.6438 87.43 85.1138 87.5467 85.5338 87.78C85.9538 88.0067 86.2838 88.3333 86.5238 88.76C86.7705 89.1867 86.8938 89.6833 86.8938 90.25C86.8938 90.8167 86.7672 91.3167 86.5138 91.75C86.2672 92.1767 85.9305 92.5067 85.5038 92.74C85.0772 92.9733 84.6038 93.09 84.0838 93.09ZM84.0838 92.29C84.4105 92.29 84.7172 92.2133 85.0038 92.06C85.2905 91.9067 85.5205 91.6767 85.6938 91.37C85.8738 91.0633 85.9638 90.69 85.9638 90.25C85.9638 89.81 85.8772 89.4367 85.7038 89.13C85.5305 88.8233 85.3038 88.5967 85.0238 88.45C84.7438 88.2967 84.4405 88.22 84.1138 88.22C83.7805 88.22 83.4738 88.2967 83.1938 88.45C82.9205 88.5967 82.7005 88.8233 82.5338 89.13C82.3672 89.4367 82.2838 89.81 82.2838 90.25C82.2838 90.6967 82.3638 91.0733 82.5238 91.38C82.6905 91.6867 82.9105 91.9167 83.1838 92.07C83.4572 92.2167 83.7572 92.29 84.0838 92.29ZM93.2503 87.52V93H92.3403V92.19C92.167 92.47 91.9236 92.69 91.6103 92.85C91.3036 93.0033 90.9636 93.08 90.5903 93.08C90.1636 93.08 89.7803 92.9933 89.4403 92.82C89.1003 92.64 88.8303 92.3733 88.6303 92.02C88.437 91.6667 88.3403 91.2367 88.3403 90.73V87.52H89.2403V90.61C89.2403 91.15 89.377 91.5667 89.6503 91.86C89.9236 92.1467 90.297 92.29 90.7703 92.29C91.257 92.29 91.6403 92.14 91.9203 91.84C92.2003 91.54 92.3403 91.1033 92.3403 90.53V87.52H93.2503ZM95.9968 88.41C96.1568 88.0967 96.3835 87.8533 96.6768 87.68C96.9768 87.5067 97.3401 87.42 97.7668 87.42V88.36H97.5268C96.5068 88.36 95.9968 88.9133 95.9968 90.02V93H95.0868V87.52H95.9968V88.41ZM105.573 89.41C105.827 89.45 106.057 89.5533 106.263 89.72C106.477 89.8867 106.643 90.0933 106.763 90.34C106.89 90.5867 106.953 90.85 106.953 91.13C106.953 91.4833 106.863 91.8033 106.683 92.09C106.503 92.37 106.24 92.5933 105.893 92.76C105.553 92.92 105.15 93 104.683 93H102.083V86.03H104.583C105.057 86.03 105.46 86.11 105.793 86.27C106.127 86.4233 106.377 86.6333 106.543 86.9C106.71 87.1667 106.793 87.4667 106.793 87.8C106.793 88.2133 106.68 88.5567 106.453 88.83C106.233 89.0967 105.94 89.29 105.573 89.41ZM102.993 89.04H104.523C104.95 89.04 105.28 88.94 105.513 88.74C105.747 88.54 105.863 88.2633 105.863 87.91C105.863 87.5567 105.747 87.28 105.513 87.08C105.28 86.88 104.943 86.78 104.503 86.78H102.993V89.04ZM104.603 92.25C105.057 92.25 105.41 92.1433 105.663 91.93C105.917 91.7167 106.043 91.42 106.043 91.04C106.043 90.6533 105.91 90.35 105.643 90.13C105.377 89.9033 105.02 89.79 104.573 89.79H102.993V92.25H104.603ZM113.376 87.52V93H112.466V92.19C112.293 92.47 112.049 92.69 111.736 92.85C111.429 93.0033 111.089 93.08 110.716 93.08C110.289 93.08 109.906 92.9933 109.566 92.82C109.226 92.64 108.956 92.3733 108.756 92.02C108.563 91.6667 108.466 91.2367 108.466 90.73V87.52H109.366V90.61C109.366 91.15 109.503 91.5667 109.776 91.86C110.049 92.1467 110.423 92.29 110.896 92.29C111.383 92.29 111.766 92.14 112.046 91.84C112.326 91.54 112.466 91.1033 112.466 90.53V87.52H113.376ZM117.153 93.09C116.733 93.09 116.356 93.02 116.023 92.88C115.689 92.7333 115.426 92.5333 115.233 92.28C115.039 92.02 114.933 91.7233 114.913 91.39H115.853C115.879 91.6633 116.006 91.8867 116.233 92.06C116.466 92.2333 116.769 92.32 117.143 92.32C117.489 92.32 117.763 92.2433 117.963 92.09C118.163 91.9367 118.263 91.7433 118.263 91.51C118.263 91.27 118.156 91.0933 117.943 90.98C117.729 90.86 117.399 90.7433 116.953 90.63C116.546 90.5233 116.213 90.4167 115.953 90.31C115.699 90.1967 115.479 90.0333 115.293 89.82C115.113 89.6 115.023 89.3133 115.023 88.96C115.023 88.68 115.106 88.4233 115.273 88.19C115.439 87.9567 115.676 87.7733 115.983 87.64C116.289 87.5 116.639 87.43 117.033 87.43C117.639 87.43 118.129 87.5833 118.503 87.89C118.876 88.1967 119.076 88.6167 119.103 89.15H118.193C118.173 88.8633 118.056 88.6333 117.843 88.46C117.636 88.2867 117.356 88.2 117.003 88.2C116.676 88.2 116.416 88.27 116.223 88.41C116.029 88.55 115.933 88.7333 115.933 88.96C115.933 89.14 115.989 89.29 116.103 89.41C116.223 89.5233 116.369 89.6167 116.543 89.69C116.723 89.7567 116.969 89.8333 117.283 89.92C117.676 90.0267 117.996 90.1333 118.243 90.24C118.489 90.34 118.699 90.4933 118.873 90.7C119.053 90.9067 119.146 91.1767 119.153 91.51C119.153 91.81 119.069 92.08 118.903 92.32C118.736 92.56 118.499 92.75 118.193 92.89C117.893 93.0233 117.546 93.09 117.153 93.09ZM121.207 86.63C121.034 86.63 120.887 86.57 120.767 86.45C120.647 86.33 120.587 86.1833 120.587 86.01C120.587 85.8367 120.647 85.69 120.767 85.57C120.887 85.45 121.034 85.39 121.207 85.39C121.374 85.39 121.514 85.45 121.627 85.57C121.747 85.69 121.807 85.8367 121.807 86.01C121.807 86.1833 121.747 86.33 121.627 86.45C121.514 86.57 121.374 86.63 121.207 86.63ZM121.647 87.52V93H120.737V87.52H121.647ZM126.168 87.42C126.835 87.42 127.375 87.6233 127.788 88.03C128.201 88.43 128.408 89.01 128.408 89.77V93H127.508V89.9C127.508 89.3533 127.371 88.9367 127.098 88.65C126.825 88.3567 126.451 88.21 125.978 88.21C125.498 88.21 125.115 88.36 124.828 88.66C124.548 88.96 124.408 89.3967 124.408 89.97V93H123.498V87.52H124.408V88.3C124.588 88.02 124.831 87.8033 125.138 87.65C125.451 87.4967 125.795 87.42 126.168 87.42ZM135.195 90.05C135.195 90.2233 135.185 90.4067 135.165 90.6H130.785C130.818 91.14 131.001 91.5633 131.335 91.87C131.675 92.17 132.085 92.32 132.565 92.32C132.958 92.32 133.285 92.23 133.545 92.05C133.811 91.8633 133.998 91.6167 134.105 91.31H135.085C134.938 91.8367 134.645 92.2667 134.205 92.6C133.765 92.9267 133.218 93.09 132.565 93.09C132.045 93.09 131.578 92.9733 131.165 92.74C130.758 92.5067 130.438 92.1767 130.205 91.75C129.971 91.3167 129.855 90.8167 129.855 90.25C129.855 89.6833 129.968 89.1867 130.195 88.76C130.421 88.3333 130.738 88.0067 131.145 87.78C131.558 87.5467 132.031 87.43 132.565 87.43C133.085 87.43 133.545 87.5433 133.945 87.77C134.345 87.9967 134.651 88.31 134.865 88.71C135.085 89.1033 135.195 89.55 135.195 90.05ZM134.255 89.86C134.255 89.5133 134.178 89.2167 134.025 88.97C133.871 88.7167 133.661 88.5267 133.395 88.4C133.135 88.2667 132.845 88.2 132.525 88.2C132.065 88.2 131.671 88.3467 131.345 88.64C131.025 88.9333 130.841 89.34 130.795 89.86H134.255ZM138.636 93.09C138.216 93.09 137.839 93.02 137.506 92.88C137.172 92.7333 136.909 92.5333 136.716 92.28C136.522 92.02 136.416 91.7233 136.396 91.39H137.336C137.362 91.6633 137.489 91.8867 137.716 92.06C137.949 92.2333 138.252 92.32 138.626 92.32C138.972 92.32 139.246 92.2433 139.446 92.09C139.646 91.9367 139.746 91.7433 139.746 91.51C139.746 91.27 139.639 91.0933 139.426 90.98C139.212 90.86 138.882 90.7433 138.436 90.63C138.029 90.5233 137.696 90.4167 137.436 90.31C137.182 90.1967 136.962 90.0333 136.776 89.82C136.596 89.6 136.506 89.3133 136.506 88.96C136.506 88.68 136.589 88.4233 136.756 88.19C136.922 87.9567 137.159 87.7733 137.466 87.64C137.772 87.5 138.122 87.43 138.516 87.43C139.122 87.43 139.612 87.5833 139.986 87.89C140.359 88.1967 140.559 88.6167 140.586 89.15H139.676C139.656 88.8633 139.539 88.6333 139.326 88.46C139.119 88.2867 138.839 88.2 138.486 88.2C138.159 88.2 137.899 88.27 137.706 88.41C137.512 88.55 137.416 88.7333 137.416 88.96C137.416 89.14 137.472 89.29 137.586 89.41C137.706 89.5233 137.852 89.6167 138.026 89.69C138.206 89.7567 138.452 89.8333 138.766 89.92C139.159 90.0267 139.479 90.1333 139.726 90.24C139.972 90.34 140.182 90.4933 140.356 90.7C140.536 90.9067 140.629 91.1767 140.636 91.51C140.636 91.81 140.552 92.08 140.386 92.32C140.219 92.56 139.982 92.75 139.676 92.89C139.376 93.0233 139.029 93.09 138.636 93.09ZM144.16 93.09C143.74 93.09 143.364 93.02 143.03 92.88C142.697 92.7333 142.434 92.5333 142.24 92.28C142.047 92.02 141.94 91.7233 141.92 91.39H142.86C142.887 91.6633 143.014 91.8867 143.24 92.06C143.474 92.2333 143.777 92.32 144.15 92.32C144.497 92.32 144.77 92.2433 144.97 92.09C145.17 91.9367 145.27 91.7433 145.27 91.51C145.27 91.27 145.164 91.0933 144.95 90.98C144.737 90.86 144.407 90.7433 143.96 90.63C143.554 90.5233 143.22 90.4167 142.96 90.31C142.707 90.1967 142.487 90.0333 142.3 89.82C142.12 89.6 142.03 89.3133 142.03 88.96C142.03 88.68 142.114 88.4233 142.28 88.19C142.447 87.9567 142.684 87.7733 142.99 87.64C143.297 87.5 143.647 87.43 144.04 87.43C144.647 87.43 145.137 87.5833 145.51 87.89C145.884 88.1967 146.084 88.6167 146.11 89.15H145.2C145.18 88.8633 145.064 88.6333 144.85 88.46C144.644 88.2867 144.364 88.2 144.01 88.2C143.684 88.2 143.424 88.27 143.23 88.41C143.037 88.55 142.94 88.7333 142.94 88.96C142.94 89.14 142.997 89.29 143.11 89.41C143.23 89.5233 143.377 89.6167 143.55 89.69C143.73 89.7567 143.977 89.8333 144.29 89.92C144.684 90.0267 145.004 90.1333 145.25 90.24C145.497 90.34 145.707 90.4933 145.88 90.7C146.06 90.9067 146.154 91.1767 146.16 91.51C146.16 91.81 146.077 92.08 145.91 92.32C145.744 92.56 145.507 92.75 145.2 92.89C144.9 93.0233 144.554 93.09 144.16 93.09ZM154.651 86.03V86.77H151.621V89.12H154.081V89.86H151.621V93H150.711V86.03H154.651ZM158.44 93.09C157.927 93.09 157.46 92.9733 157.04 92.74C156.627 92.5067 156.3 92.1767 156.06 91.75C155.827 91.3167 155.71 90.8167 155.71 90.25C155.71 89.69 155.83 89.1967 156.07 88.77C156.317 88.3367 156.65 88.0067 157.07 87.78C157.49 87.5467 157.96 87.43 158.48 87.43C159 87.43 159.47 87.5467 159.89 87.78C160.31 88.0067 160.64 88.3333 160.88 88.76C161.127 89.1867 161.25 89.6833 161.25 90.25C161.25 90.8167 161.123 91.3167 160.87 91.75C160.623 92.1767 160.287 92.5067 159.86 92.74C159.433 92.9733 158.96 93.09 158.44 93.09ZM158.44 92.29C158.767 92.29 159.073 92.2133 159.36 92.06C159.647 91.9067 159.877 91.6767 160.05 91.37C160.23 91.0633 160.32 90.69 160.32 90.25C160.32 89.81 160.233 89.4367 160.06 89.13C159.887 88.8233 159.66 88.5967 159.38 88.45C159.1 88.2967 158.797 88.22 158.47 88.22C158.137 88.22 157.83 88.2967 157.55 88.45C157.277 88.5967 157.057 88.8233 156.89 89.13C156.723 89.4367 156.64 89.81 156.64 90.25C156.64 90.6967 156.72 91.0733 156.88 91.38C157.047 91.6867 157.267 91.9167 157.54 92.07C157.813 92.2167 158.113 92.29 158.44 92.29ZM163.657 88.41C163.817 88.0967 164.043 87.8533 164.337 87.68C164.637 87.5067 165 87.42 165.427 87.42V88.36H165.187C164.167 88.36 163.657 88.9133 163.657 90.02V93H162.747V87.52H163.657V88.41ZM174.077 87.52L172.367 93H171.427L170.107 88.65L168.787 93H167.847L166.127 87.52H167.057L168.317 92.12L169.677 87.52H170.607L171.937 92.13L173.177 87.52H174.077ZM174.94 90.24C174.94 89.68 175.053 89.19 175.28 88.77C175.507 88.3433 175.817 88.0133 176.21 87.78C176.61 87.5467 177.053 87.43 177.54 87.43C178.02 87.43 178.437 87.5333 178.79 87.74C179.143 87.9467 179.407 88.2067 179.58 88.52V87.52H180.5V93H179.58V91.98C179.4 92.3 179.13 92.5667 178.77 92.78C178.417 92.9867 178.003 93.09 177.53 93.09C177.043 93.09 176.603 92.97 176.21 92.73C175.817 92.49 175.507 92.1533 175.28 91.72C175.053 91.2867 174.94 90.7933 174.94 90.24ZM179.58 90.25C179.58 89.8367 179.497 89.4767 179.33 89.17C179.163 88.8633 178.937 88.63 178.65 88.47C178.37 88.3033 178.06 88.22 177.72 88.22C177.38 88.22 177.07 88.3 176.79 88.46C176.51 88.62 176.287 88.8533 176.12 89.16C175.953 89.4667 175.87 89.8267 175.87 90.24C175.87 90.66 175.953 91.0267 176.12 91.34C176.287 91.6467 176.51 91.8833 176.79 92.05C177.07 92.21 177.38 92.29 177.72 92.29C178.06 92.29 178.37 92.21 178.65 92.05C178.937 91.8833 179.163 91.6467 179.33 91.34C179.497 91.0267 179.58 90.6633 179.58 90.25ZM183.248 88.41C183.408 88.0967 183.635 87.8533 183.928 87.68C184.228 87.5067 184.591 87.42 185.018 87.42V88.36H184.778C183.758 88.36 183.248 88.9133 183.248 90.02V93H182.338V87.52H183.248V88.41ZM186.028 90.24C186.028 89.68 186.142 89.19 186.368 88.77C186.595 88.3433 186.905 88.0133 187.298 87.78C187.698 87.5467 188.145 87.43 188.638 87.43C189.065 87.43 189.462 87.53 189.828 87.73C190.195 87.9233 190.475 88.18 190.668 88.5V85.6H191.588V93H190.668V91.97C190.488 92.2967 190.222 92.5667 189.868 92.78C189.515 92.9867 189.102 93.09 188.628 93.09C188.142 93.09 187.698 92.97 187.298 92.73C186.905 92.49 186.595 92.1533 186.368 91.72C186.142 91.2867 186.028 90.7933 186.028 90.24ZM190.668 90.25C190.668 89.8367 190.585 89.4767 190.418 89.17C190.252 88.8633 190.025 88.63 189.738 88.47C189.458 88.3033 189.148 88.22 188.808 88.22C188.468 88.22 188.158 88.3 187.878 88.46C187.598 88.62 187.375 88.8533 187.208 89.16C187.042 89.4667 186.958 89.8267 186.958 90.24C186.958 90.66 187.042 91.0267 187.208 91.34C187.375 91.6467 187.598 91.8833 187.878 92.05C188.158 92.21 188.468 92.29 188.808 92.29C189.148 92.29 189.458 92.21 189.738 92.05C190.025 91.8833 190.252 91.6467 190.418 91.34C190.585 91.0267 190.668 90.6633 190.668 90.25Z" fill="#262626"/>
</svg>
