<svg width="30" height="274" viewBox="0 0 30 274" fill="none" xmlns="http://www.w3.org/2000/svg">
<g opacity="0.1">
<path d="M19.2104 269.288L22.6325 274C23.9745 273.361 25.2091 272.469 26.3364 271.325C27.4636 270.18 28.3628 268.836 29.0338 267.291C29.6779 265.721 30 264.03 30 262.22C30 260.916 29.7987 259.651 29.3961 258.427C29.0203 257.175 28.4567 256.071 27.7052 255.112C26.9537 254.127 26.0277 253.355 24.9273 252.796C23.8 252.211 22.5251 251.918 21.1026 251.918C19.9216 251.918 18.8749 252.104 17.9623 252.477C17.0498 252.85 16.2446 253.369 15.5467 254.034C14.8489 254.673 14.2584 255.418 13.7753 256.27C13.2654 257.122 12.8225 258.041 12.4467 259.026C11.9905 260.33 11.561 261.448 11.1584 262.38C10.7558 263.285 10.313 263.99 9.82986 264.496C9.34674 264.975 8.78311 265.215 8.13895 265.215C7.52164 265.215 7.01168 264.962 6.60908 264.456C6.17964 263.951 5.96492 263.218 5.96492 262.26C5.96492 261.541 6.11254 260.876 6.40778 260.264C6.67618 259.625 7.06536 259.052 7.57532 258.546C8.05843 258.014 8.63549 257.548 9.30649 257.149L6.40778 251.998C5.44155 252.477 4.48873 253.169 3.54934 254.074C2.60995 254.979 1.83159 256.124 1.21427 257.508C0.596958 258.866 0.288299 260.476 0.288299 262.34C0.288299 264.15 0.610378 265.801 1.25453 267.291C1.87185 268.756 2.7844 269.927 3.9922 270.805C5.19999 271.657 6.63592 272.083 8.29999 272.083C9.69566 272.083 10.89 271.83 11.8831 271.325C12.8493 270.819 13.6814 270.18 14.3792 269.408C15.0502 268.636 15.6004 267.824 16.0299 266.972C16.4593 266.094 16.7948 265.322 17.0364 264.656C17.5463 263.298 18.0026 262.207 18.4052 261.382C18.8078 260.556 19.2372 259.957 19.6935 259.585C20.1229 259.212 20.7 259.026 21.4247 259.026C22.2835 259.026 22.968 259.345 23.4779 259.984C23.961 260.623 24.2026 261.435 24.2026 262.42C24.2026 263.352 24.0013 264.243 23.5987 265.095C23.1961 265.92 22.619 266.693 21.8675 267.411C21.116 268.103 20.2303 268.729 19.2104 269.288Z" fill="#A4A4A4"/>
<path d="M15.5813 240.218L27.3371 232.591L15.5813 224.924L29.954 223.247L29.954 216.139L0.36308 220.651L17.554 232.591L0.363081 244.491L29.954 249.003L29.954 241.895L15.5813 240.218Z" fill="#A4A4A4"/>
<path d="M18.2116 214.597L18.2116 206.131L12.9375 206.131L12.9375 214.597L18.2116 214.597Z" fill="#A4A4A4"/>
<path d="M0.363079 202.989L29.954 202.989L29.954 185.02L23.244 185.02L23.244 196.241L0.363079 196.241L0.363079 202.989Z" fill="#A4A4A4"/>
<path d="M15.0234 178.35C13.3593 178.35 11.8965 178.03 10.6351 177.391C9.34674 176.726 8.34025 175.807 7.61557 174.636C6.8909 173.438 6.52856 172.04 6.52856 170.443C6.52856 168.819 6.89089 167.422 7.61557 166.25C8.34025 165.079 9.34674 164.174 10.6351 163.535C11.8965 162.896 13.3593 162.577 15.0234 162.577C16.6874 162.577 18.1636 162.909 19.4519 163.575C20.7134 164.214 21.7065 165.132 22.4312 166.33C23.1558 167.502 23.5182 168.873 23.5182 170.443C23.5182 172.04 23.1558 173.438 22.4312 174.636C21.7065 175.807 20.7134 176.726 19.4519 177.391C18.1636 178.03 16.6874 178.35 15.0234 178.35ZM15.0234 185.497C17.1974 185.497 19.197 185.138 21.0221 184.419C22.8472 183.674 24.4307 182.636 25.7727 181.305C27.1147 179.947 28.1615 178.35 28.913 176.513C29.6377 174.676 30 172.653 30 170.443C30 168.26 29.6377 166.25 28.913 164.414C28.1615 162.577 27.1147 160.993 25.7727 159.662C24.4307 158.304 22.8472 157.266 21.0221 156.547C19.197 155.802 17.1974 155.429 15.0234 155.429C12.8493 155.429 10.8632 155.802 9.06492 156.547C7.26665 157.292 5.70994 158.344 4.39479 159.702C3.07964 161.059 2.07314 162.657 1.37531 164.493C0.650633 166.304 0.288295 168.287 0.288295 170.443C0.288295 172.573 0.650634 174.556 1.37531 176.393C2.07314 178.23 3.07964 179.827 4.39479 181.185C5.70994 182.542 7.26666 183.607 9.06492 184.379C10.8632 185.125 12.8493 185.497 15.0234 185.497Z" fill="#A4A4A4"/>
<path d="M18.9286 138.047L18.9286 130.62C19.6532 130.859 20.3377 131.192 20.9818 131.618C21.5991 132.017 22.1493 132.51 22.6325 133.096C23.0887 133.681 23.4511 134.387 23.7195 135.212C23.961 136.037 24.0818 136.956 24.0818 137.967C24.0818 139.618 23.7195 141.082 22.9948 142.36C22.2433 143.611 21.1965 144.609 19.8545 145.355C18.4857 146.073 16.8753 146.433 15.0234 146.433C13.1446 146.433 11.561 146.06 10.2727 145.315C8.95756 144.543 7.95107 143.518 7.25323 142.24C6.5554 140.935 6.20648 139.511 6.20648 137.967C6.20648 136.343 6.58224 134.999 7.33375 133.934C8.05843 132.843 8.9844 131.977 10.1117 131.339L6.97141 125.349C5.65626 126.227 4.50215 127.279 3.50907 128.503C2.48916 129.701 1.69738 131.086 1.13375 132.656C0.570112 134.227 0.288294 135.997 0.288294 137.967C0.288294 140.177 0.637212 142.227 1.33505 144.117C2.03288 146.007 3.02596 147.657 4.31427 149.068C5.60258 150.479 7.15929 151.571 8.9844 152.343C10.7827 153.115 12.7957 153.501 15.0234 153.501C17.2511 153.501 19.2909 153.128 21.1428 152.383C22.968 151.611 24.5515 150.546 25.8935 149.188C27.2086 147.83 28.2286 146.22 28.9532 144.356C29.6511 142.493 30 140.443 30 138.207C30 135.838 29.584 133.734 28.7519 131.898C27.8931 130.061 26.7121 128.53 25.2091 127.305C23.7061 126.081 21.9749 125.176 20.0156 124.59C18.0563 124.004 15.9493 123.778 13.6948 123.911L13.6948 138.047L18.9286 138.047Z" fill="#A4A4A4"/>
<path d="M0.597181 120.18L29.9533 120.18L29.9533 113.311L0.597181 113.311L0.597181 120.18Z" fill="#A4A4A4"/>
<path d="M19.2104 105.113L22.6325 109.825C23.9744 109.186 25.2091 108.294 26.3363 107.149C27.4636 106.005 28.3628 104.66 29.0338 103.116C29.6779 101.546 30 99.8552 30 98.0449C30 96.7405 29.7987 95.476 29.3961 94.2514C29.0203 93.0003 28.4567 91.8955 27.7052 90.9371C26.9537 89.9521 26.0277 89.1801 24.9273 88.6211C23.8 88.0354 22.5251 87.7426 21.1026 87.7426C19.9216 87.7426 18.8749 87.9289 17.9623 88.3016C17.0498 88.6743 16.2446 89.1934 15.5467 89.859C14.8489 90.4979 14.2584 91.2432 13.7753 92.0951C13.2654 92.947 12.8225 93.8654 12.4467 94.8504C11.9905 96.1549 11.561 97.2729 11.1584 98.2047C10.7558 99.1098 10.313 99.8153 9.82985 100.321C9.34674 100.8 8.7831 101.04 8.13894 101.04C7.52163 101.04 6.9995 100.59 6.80726 100.108C6.69328 99.8224 6.64802 99.6696 6.59729 99.3999C6.57014 99.2555 6.55849 99.1547 6.55024 99.0029C6.54605 98.9259 6.54194 98.751 6.54124 98.6822C6.53922 98.4845 6.54124 98.3098 6.54124 98.1647C6.54124 97.446 6.54124 94.2337 6.54124 93.4627L6.54124 92.7618L6.54124 92.2361L6.54124 87.7426C6.54124 87.7426 4.48873 88.9938 3.54933 89.8989C2.60994 90.804 1.83158 91.9487 1.21427 93.333C0.596951 94.6907 0.288292 96.3013 0.288292 98.1647C0.288292 99.975 0.61037 101.625 1.25453 103.116C1.87184 104.58 2.7844 105.752 3.99219 106.63C5.19998 107.482 6.63591 107.908 8.29999 107.908C9.69566 107.908 10.89 107.655 11.8831 107.149C12.8493 106.644 13.6814 106.005 14.3792 105.233C15.0502 104.461 15.6004 103.649 16.0299 102.797C16.4593 101.918 16.7948 101.146 17.0363 100.481C17.5463 99.1231 18.0026 98.0316 18.4052 97.2064C18.8078 96.3811 19.2372 95.7821 19.6935 95.4095C20.1229 95.0368 20.7 94.8504 21.4247 94.8504C22.2835 94.8504 22.968 95.1699 23.4779 95.8088C23.961 96.4477 24.2026 97.2596 24.2026 98.2446C24.2026 99.1764 24.0013 100.068 23.5987 100.92C23.1961 101.745 22.619 102.517 21.8675 103.236C21.116 103.928 20.2303 104.554 19.2104 105.113Z" fill="#A4A4A4"/>
<path d="M6.54124 98.1647C6.54124 92.2846 6.54124 83.1077 6.54124 83.1077L29.9533 83.1077L29.9532 76.3593L6.54124 76.3593L6.54124 68.4025L0.234607 68.4025L0.28881 98.2099C0.28881 98.2099 4.09951 98.1824 6.54124 98.1647Z" fill="#A4A4A4"/>
<path d="M0.288291 65.3103L29.9532 65.3103L29.9532 58.4421L0.28829 58.4421L0.288291 65.3103Z" fill="#A4A4A4"/>
<path d="M15.0234 47.4113C13.2788 47.4113 11.7892 47.0253 10.5545 46.2532C9.3199 45.4812 8.3805 44.4697 7.73635 43.2185C7.09219 41.9407 6.77011 40.543 6.77011 39.0256C6.77011 37.6946 6.94457 36.5233 7.29349 35.5117C7.61556 34.5001 8.07184 33.5949 8.66232 32.7963C9.22596 31.9977 9.82985 31.2922 10.474 30.6799L3.14673 30.6799C2.26102 31.798 1.56318 33.0226 1.05322 34.3536C0.543268 35.6847 0.288289 37.3751 0.28829 39.4249C0.28829 41.6611 0.637208 43.7243 1.33504 45.6143C2.03288 47.5044 3.03937 49.1283 4.35453 50.486C5.66968 51.8437 7.22639 52.8952 9.02466 53.6406C10.8229 54.386 12.8225 54.7587 15.0234 54.7587C17.2242 54.7587 19.2238 54.386 21.0221 53.6406C22.8203 52.8952 24.377 51.8437 25.6922 50.486C27.0073 49.1283 28.0138 47.5044 28.7117 45.6143C29.4095 43.7242 29.7584 41.6611 29.7584 39.4249C29.7584 37.3751 29.5035 35.6847 28.9935 34.3536C28.4835 33.0226 27.7857 31.798 26.9 30.6799L19.5727 30.6799C20.2169 31.2922 20.8208 31.9977 21.3844 32.7963C21.948 33.5949 22.4043 34.5001 22.7532 35.5117C23.1021 36.5233 23.2766 37.6946 23.2766 39.0256C23.2766 40.543 22.9545 41.9407 22.3104 43.2185C21.6662 44.4697 20.7268 45.4812 19.4922 46.2532C18.2307 47.0253 16.7411 47.4113 15.0234 47.4113Z" fill="#A4A4A4"/>
<path d="M24.5182 22.0423L24.5182 7.26755L19.3247 7.70679L19.3247 21.5631L24.5182 22.0423ZM12.1182 14.7348L21.2571 10.7815L22.9883 11.0211L29.9532 7.66687L29.9532 -1.3093e-06L-1.13328e-05 14.7348L29.9532 29.4296L29.9532 21.8027L22.7065 18.3286L21.2169 18.6481L12.1182 14.7348Z" fill="#A4A4A4"/>
</g>
</svg>
